<svg xmlns="http://www.w3.org/2000/svg" xmlns:xlink="http://www.w3.org/1999/xlink" width="40" zoomAndPan="magnify" viewBox="0 0 30 30.000001" height="40" preserveAspectRatio="xMidYMid meet" version="1.2"><defs><clipPath id="379d557778"><path d="M 0.484375 0 L 29.515625 0 L 29.515625 29.03125 L 0.484375 29.03125 Z M 0.484375 0 "/></clipPath><clipPath id="3d9b05f90e"><path d="M 3.386719 5.792969 L 26.613281 5.792969 L 26.613281 23.210938 L 3.386719 23.210938 Z M 3.386719 5.792969 "/></clipPath></defs><g id="9e3693787d"><g clip-rule="nonzero" clip-path="url(#379d557778)"><path style=" stroke:none;fill-rule:nonzero;fill:#ffffff;fill-opacity:1;" d="M 0.484375 0 L 29.515625 0 L 29.515625 29.03125 L 0.484375 29.03125 Z M 0.484375 0 "/><path style=" stroke:none;fill-rule:nonzero;fill:#be0b32;fill-opacity:1;" d="M 0.484375 0 L 29.515625 0 L 29.515625 29.03125 L 0.484375 29.03125 Z M 0.484375 0 "/></g><g style="fill:#000000;fill-opacity:1;"><g transform="translate(14.999999, 16.983875)"><path style="stroke:none" d="M 0.09375 0 L 0.09375 -0.140625 L 0.46875 -0.140625 L 0.46875 -1.1875 L 0.453125 -1.203125 C 0.390625 -1.171875 0.332031 -1.144531 0.28125 -1.125 C 0.238281 -1.113281 0.179688 -1.097656 0.109375 -1.078125 L 0.109375 -1.234375 C 0.179688 -1.242188 0.253906 -1.257812 0.328125 -1.28125 C 0.398438 -1.3125 0.460938 -1.347656 0.515625 -1.390625 L 0.640625 -1.390625 L 0.640625 -0.140625 L 0.96875 -0.140625 L 0.96875 0 Z M 0.09375 0 "/></g></g><g clip-rule="nonzero" clip-path="url(#3d9b05f90e)"><path style=" stroke:none;fill-rule:evenodd;fill:#ffffff;fill-opacity:1;" d="M 25.925781 6.46875 C 25.246094 5.789062 24.140625 5.789062 23.457031 6.46875 C 23.457031 6.46875 12.851562 17.078125 11.019531 18.910156 C 10.949219 18.980469 10.851562 19.019531 10.75 19.019531 C 10.652344 19.019531 10.554688 18.980469 10.484375 18.910156 C 9.554688 17.980469 6.53125 14.957031 6.53125 14.957031 C 5.851562 14.277344 4.746094 14.277344 4.0625 14.957031 C 3.382812 15.636719 3.382812 16.742188 4.0625 17.421875 C 4.0625 17.421875 8.152344 21.511719 9.25 22.609375 C 9.648438 23.007812 10.1875 23.230469 10.75 23.230469 C 11.316406 23.230469 11.855469 23.007812 12.253906 22.609375 C 14.1875 20.675781 25.925781 8.9375 25.925781 8.9375 C 26.605469 8.253906 26.605469 7.152344 25.925781 6.46875 Z M 25.925781 6.46875 "/></g></g></svg>