<svg xmlns="http://www.w3.org/2000/svg" xmlns:xlink="http://www.w3.org/1999/xlink" width="48" zoomAndPan="magnify" viewBox="0 0 36 36.000001" height="48" preserveAspectRatio="xMidYMid meet" version="1.2"><defs><clipPath id="0cf642cc40"><path d="M 1 1 L 34 1 L 34 35 L 1 35 Z M 1 1 "/></clipPath><clipPath id="693e0a31a6"><path d="M 19.324219 -5.132812 L 40.617188 19.851562 L 15.632812 41.148438 L -5.660156 16.160156 Z M 19.324219 -5.132812 "/></clipPath><clipPath id="4dddfb5300"><path d="M 29.972656 7.359375 C 24.089844 0.460938 13.730469 -0.367188 6.832031 5.515625 C -0.0664062 11.394531 -0.894531 21.753906 4.984375 28.65625 C 10.867188 35.554688 21.226562 36.378906 28.125 30.5 C 35.027344 24.621094 35.851562 14.257812 29.972656 7.359375 Z M 29.972656 7.359375 "/></clipPath><clipPath id="c958fa5e65"><path d="M 6 3 L 35 3 L 35 30 L 6 30 Z M 6 3 "/></clipPath><clipPath id="def80dafe7"><path d="M 27.40625 -5.113281 L 42.082031 12.105469 L 7.648438 41.453125 L -7.027344 24.234375 Z M 27.40625 -5.113281 "/></clipPath><clipPath id="11bcdc6a5e"><path d="M 27.40625 -5.113281 L 42.082031 12.105469 L 7.648438 41.453125 L -7.027344 24.234375 Z M 27.40625 -5.113281 "/></clipPath><clipPath id="219cb67d08"><path d="M 15 3 L 35 3 L 35 30 L 15 30 Z M 15 3 "/></clipPath><clipPath id="6dc05e436e"><path d="M 27.40625 -5.113281 L 42.082031 12.105469 L 7.648438 41.453125 L -7.027344 24.234375 Z M 27.40625 -5.113281 "/></clipPath><clipPath id="8cce076c3b"><path d="M 27.40625 -5.113281 L 42.082031 12.105469 L 7.648438 41.453125 L -7.027344 24.234375 Z M 27.40625 -5.113281 "/></clipPath><clipPath id="d44cbf26e7"><path d="M 0.488281 20 L 15 20 L 15 33 L 0.488281 33 Z M 0.488281 20 "/></clipPath><clipPath id="61600d47b2"><path d="M 27.40625 -5.113281 L 42.082031 12.105469 L 7.648438 41.453125 L -7.027344 24.234375 Z M 27.40625 -5.113281 "/></clipPath><clipPath id="f2b63abd5b"><path d="M 27.40625 -5.113281 L 42.082031 12.105469 L 7.648438 41.453125 L -7.027344 24.234375 Z M 27.40625 -5.113281 "/></clipPath></defs><g id="15d5cc06bc"><g clip-rule="nonzero" clip-path="url(#0cf642cc40)"><g clip-rule="nonzero" clip-path="url(#693e0a31a6)"><g clip-rule="nonzero" clip-path="url(#4dddfb5300)"><path style=" stroke:none;fill-rule:nonzero;fill:#ffbd59;fill-opacity:1;" d="M 19.324219 -5.132812 L 40.617188 19.851562 L 15.632812 41.148438 L -5.660156 16.160156 Z M 19.324219 -5.132812 "/></g></g></g><g clip-rule="nonzero" clip-path="url(#c958fa5e65)"><g clip-rule="nonzero" clip-path="url(#def80dafe7)"><g clip-rule="nonzero" clip-path="url(#11bcdc6a5e)"><path style=" stroke:none;fill-rule:nonzero;fill:#004aad;fill-opacity:1;" d="M 34.613281 3.394531 L 21.105469 29.558594 L 15.75 19.472656 L 6.640625 12.585938 Z M 24.332031 12.160156 C 24.597656 12.472656 24.800781 12.824219 24.9375 13.210938 C 25.074219 13.601562 25.140625 14 25.128906 14.414062 C 25.117188 14.824219 25.035156 15.222656 24.878906 15.605469 C 24.722656 15.984375 24.503906 16.324219 24.21875 16.625 L 24.1875 16.65625 L 24.152344 16.683594 L 24.125 16.707031 L 24.082031 16.746094 L 24.066406 16.757812 L 24.007812 16.804688 L 24.003906 16.808594 C 23.984375 16.828125 23.960938 16.84375 23.941406 16.863281 C 23.777344 17.027344 23.601562 17.175781 23.40625 17.304688 C 23.214844 17.433594 23.007812 17.542969 22.792969 17.628906 C 22.578125 17.714844 22.355469 17.777344 22.125 17.816406 C 21.894531 17.859375 21.664062 17.875 21.433594 17.867188 C 21.199219 17.859375 20.972656 17.828125 20.746094 17.769531 C 20.519531 17.714844 20.300781 17.636719 20.09375 17.535156 C 19.882812 17.433594 19.6875 17.3125 19.503906 17.171875 C 19.316406 17.027344 19.152344 16.871094 19 16.691406 C 18.847656 16.515625 18.71875 16.324219 18.605469 16.121094 C 18.496094 15.917969 18.40625 15.703125 18.339844 15.480469 C 18.273438 15.257812 18.230469 15.03125 18.210938 14.796875 C 18.191406 14.566406 18.195312 14.335938 18.222656 14.105469 C 18.25 13.875 18.304688 13.648438 18.378906 13.429688 C 18.453125 13.207031 18.550781 13 18.671875 12.800781 C 18.789062 12.601562 18.929688 12.414062 19.085938 12.242188 C 19.246094 12.074219 19.417969 11.917969 19.609375 11.785156 C 19.628906 11.765625 19.648438 11.75 19.667969 11.730469 L 19.675781 11.726562 L 19.730469 11.679688 L 19.746094 11.667969 L 19.792969 11.628906 L 19.820312 11.605469 L 19.851562 11.578125 L 19.886719 11.546875 C 20.226562 11.316406 20.597656 11.152344 21 11.058594 C 21.402344 10.964844 21.804688 10.945312 22.214844 11 C 22.621094 11.054688 23.007812 11.183594 23.371094 11.378906 C 23.730469 11.578125 24.046875 11.832031 24.316406 12.144531 Z M 24.332031 12.160156 "/></g></g></g><g clip-rule="nonzero" clip-path="url(#219cb67d08)"><g clip-rule="nonzero" clip-path="url(#6dc05e436e)"><g clip-rule="nonzero" clip-path="url(#8cce076c3b)"><path style=" stroke:none;fill-rule:nonzero;fill:#012f6b;fill-opacity:1;" d="M 34.613281 3.394531 L 21.105469 29.558594 L 15.75 19.472656 L 19.230469 16.507812 C 19.519531 16.84375 19.859375 17.113281 20.257812 17.316406 C 20.652344 17.519531 21.070312 17.636719 21.515625 17.671875 C 21.957031 17.707031 22.390625 17.65625 22.8125 17.519531 C 23.234375 17.382812 23.613281 17.171875 23.953125 16.882812 C 23.972656 16.867188 23.996094 16.847656 24.015625 16.832031 L 24.019531 16.824219 L 24.078125 16.777344 L 24.089844 16.765625 L 24.136719 16.726562 L 24.164062 16.703125 L 24.199219 16.675781 L 24.230469 16.644531 C 24.515625 16.347656 24.734375 16.003906 24.890625 15.625 C 25.046875 15.242188 25.128906 14.847656 25.140625 14.433594 C 25.152344 14.023438 25.085938 13.621094 24.949219 13.234375 C 24.8125 12.84375 24.609375 12.492188 24.34375 12.179688 L 34.628906 3.414062 Z M 34.613281 3.394531 "/></g></g></g><g clip-rule="nonzero" clip-path="url(#d44cbf26e7)"><g clip-rule="nonzero" clip-path="url(#61600d47b2)"><g clip-rule="nonzero" clip-path="url(#f2b63abd5b)"><path style=" stroke:none;fill-rule:nonzero;fill:#004aad;fill-opacity:1;" d="M 0.335938 32.609375 L 11.554688 28.035156 L 14.097656 20.882812 L 6.628906 22.257812 Z M 0.335938 32.609375 "/><path style=" stroke:none;fill-rule:nonzero;fill:#012f6b;fill-opacity:1;" d="M 0.335938 32.609375 L 11.554688 28.035156 L 14.097656 20.882812 Z M 0.335938 32.609375 "/></g></g></g></g></svg>