<svg xmlns="http://www.w3.org/2000/svg" xmlns:xlink="http://www.w3.org/1999/xlink" width="145" zoomAndPan="magnify" viewBox="0 0 108.75 37.5" height="50" preserveAspectRatio="xMidYMid meet" version="1.2"><defs><clipPath id="98ee6d9bde"><path d="M 4 0 L 41 0 L 41 37 L 4 37 Z M 4 0 "/></clipPath><clipPath id="686981499c"><path d="M 24.265625 -7.152344 L 47.878906 20.550781 L 20.171875 44.164062 L -3.441406 16.457031 Z M 24.265625 -7.152344 "/></clipPath><clipPath id="0acc5a8914"><path d="M 36.070312 6.699219 C 29.550781 -0.953125 18.0625 -1.867188 10.414062 4.652344 C 2.761719 11.171875 1.84375 22.660156 8.367188 30.3125 C 14.886719 37.960938 26.375 38.878906 34.023438 32.359375 C 41.675781 25.835938 42.59375 14.347656 36.070312 6.699219 Z M 36.070312 6.699219 "/></clipPath><clipPath id="055c776869"><path d="M 10 2 L 42 2 L 42 32 L 10 32 Z M 10 2 "/></clipPath><clipPath id="39825c68e6"><path d="M 33.234375 -7.136719 L 49.078125 11.453125 L 10.773438 44.097656 L -5.070312 25.511719 Z M 33.234375 -7.136719 "/></clipPath><clipPath id="7881c4228d"><path d="M 33.234375 -7.136719 L 49.078125 11.453125 L 10.773438 44.097656 L -5.070312 25.511719 Z M 33.234375 -7.136719 "/></clipPath><clipPath id="115b384aea"><path d="M 20 2 L 42 2 L 42 32 L 20 32 Z M 20 2 "/></clipPath><clipPath id="c2220df4b5"><path d="M 33.234375 -7.136719 L 49.078125 11.453125 L 10.773438 44.097656 L -5.070312 25.511719 Z M 33.234375 -7.136719 "/></clipPath><clipPath id="5b1f0ce393"><path d="M 33.234375 -7.136719 L 49.078125 11.453125 L 10.773438 44.097656 L -5.070312 25.511719 Z M 33.234375 -7.136719 "/></clipPath><clipPath id="d7e5565033"><path d="M 2 21 L 19 21 L 19 35 L 2 35 Z M 2 21 "/></clipPath><clipPath id="44263efccb"><path d="M 33.234375 -7.136719 L 49.078125 11.453125 L 10.773438 44.097656 L -5.070312 25.511719 Z M 33.234375 -7.136719 "/></clipPath><clipPath id="f4dfb44c92"><path d="M 33.234375 -7.136719 L 49.078125 11.453125 L 10.773438 44.097656 L -5.070312 25.511719 Z M 33.234375 -7.136719 "/></clipPath><clipPath id="8b3ad23bc8"><path d="M 102 20 L 107.910156 20 L 107.910156 27 L 102 27 Z M 102 20 "/></clipPath></defs><g id="50e0ee6fe4"><g clip-rule="nonzero" clip-path="url(#98ee6d9bde)"><g clip-rule="nonzero" clip-path="url(#686981499c)"><g clip-rule="nonzero" clip-path="url(#0acc5a8914)"><path style=" stroke:none;fill-rule:nonzero;fill:#ffbd59;fill-opacity:1;" d="M 24.265625 -7.152344 L 47.878906 20.550781 L 20.171875 44.164062 L -3.441406 16.457031 Z M 24.265625 -7.152344 "/></g></g></g><g clip-rule="nonzero" clip-path="url(#055c776869)"><g clip-rule="nonzero" clip-path="url(#39825c68e6)"><g clip-rule="nonzero" clip-path="url(#7881c4228d)"><path style=" stroke:none;fill-rule:nonzero;fill:#004aad;fill-opacity:1;" d="M 41.132812 2.179688 L 25.902344 31.199219 L 20.074219 20.125 L 10.0625 12.613281 Z M 29.65625 11.960938 C 29.945312 12.304688 30.167969 12.6875 30.316406 13.117188 C 30.464844 13.542969 30.53125 13.984375 30.515625 14.441406 C 30.5 14.894531 30.402344 15.332031 30.222656 15.757812 C 30.046875 16.179688 29.800781 16.558594 29.484375 16.890625 L 29.445312 16.925781 L 29.410156 16.953125 L 29.378906 16.980469 L 29.328125 17.023438 L 29.3125 17.039062 L 29.25 17.089844 L 29.242188 17.097656 C 29.21875 17.117188 29.195312 17.136719 29.171875 17.15625 C 28.992188 17.339844 28.792969 17.507812 28.578125 17.652344 C 28.363281 17.792969 28.132812 17.914062 27.894531 18.011719 C 27.652344 18.109375 27.40625 18.183594 27.152344 18.230469 C 26.898438 18.277344 26.644531 18.296875 26.386719 18.289062 C 26.128906 18.28125 25.875 18.25 25.625 18.191406 C 25.375 18.132812 25.136719 18.046875 24.90625 17.9375 C 24.675781 17.828125 24.457031 17.695312 24.253906 17.542969 C 24.050781 17.386719 23.867188 17.210938 23.703125 17.019531 C 23.539062 16.824219 23.394531 16.617188 23.273438 16.390625 C 23.152344 16.167969 23.054688 15.933594 22.984375 15.6875 C 22.914062 15.441406 22.867188 15.191406 22.847656 14.9375 C 22.828125 14.679688 22.835938 14.425781 22.871094 14.171875 C 22.902344 13.914062 22.964844 13.667969 23.050781 13.421875 C 23.136719 13.179688 23.246094 12.945312 23.378906 12.726562 C 23.515625 12.503906 23.667969 12.296875 23.847656 12.105469 C 24.023438 11.917969 24.214844 11.746094 24.425781 11.59375 C 24.449219 11.574219 24.472656 11.554688 24.496094 11.535156 L 24.503906 11.53125 L 24.566406 11.476562 L 24.582031 11.464844 L 24.632812 11.421875 L 24.664062 11.394531 L 24.699219 11.363281 L 24.738281 11.332031 C 25.117188 11.070312 25.53125 10.886719 25.976562 10.78125 C 26.421875 10.671875 26.871094 10.644531 27.320312 10.703125 C 27.773438 10.757812 28.199219 10.894531 28.597656 11.109375 C 28.996094 11.324219 29.34375 11.601562 29.636719 11.945312 Z M 29.65625 11.960938 "/></g></g></g><g clip-rule="nonzero" clip-path="url(#115b384aea)"><g clip-rule="nonzero" clip-path="url(#c2220df4b5)"><g clip-rule="nonzero" clip-path="url(#5b1f0ce393)"><path style=" stroke:none;fill-rule:nonzero;fill:#012f6b;fill-opacity:1;" d="M 41.132812 2.179688 L 25.902344 31.199219 L 20.074219 20.125 L 23.960938 16.8125 C 24.277344 17.179688 24.652344 17.476562 25.089844 17.695312 C 25.523438 17.914062 25.988281 18.039062 26.476562 18.074219 C 26.96875 18.109375 27.445312 18.046875 27.914062 17.894531 C 28.386719 17.738281 28.808594 17.5 29.1875 17.179688 C 29.210938 17.160156 29.234375 17.140625 29.253906 17.121094 L 29.261719 17.113281 L 29.324219 17.0625 L 29.339844 17.046875 L 29.390625 17.003906 L 29.421875 16.976562 L 29.457031 16.945312 L 29.496094 16.914062 C 29.8125 16.578125 30.058594 16.203125 30.238281 15.777344 C 30.414062 15.355469 30.511719 14.917969 30.527344 14.460938 C 30.542969 14.007812 30.476562 13.566406 30.328125 13.140625 C 30.179688 12.710938 29.960938 12.324219 29.667969 11.980469 L 41.148438 2.195312 Z M 41.132812 2.179688 "/></g></g></g><g clip-rule="nonzero" clip-path="url(#d7e5565033)"><g clip-rule="nonzero" clip-path="url(#44263efccb)"><g clip-rule="nonzero" clip-path="url(#f4dfb44c92)"><path style=" stroke:none;fill-rule:nonzero;fill:#004aad;fill-opacity:1;" d="M 2.875 34.785156 L 15.339844 29.617188 L 18.230469 21.695312 L 9.949219 23.289062 Z M 2.875 34.785156 "/><path style=" stroke:none;fill-rule:nonzero;fill:#012f6b;fill-opacity:1;" d="M 2.875 34.785156 L 15.339844 29.617188 L 18.230469 21.695312 Z M 2.875 34.785156 "/></g></g></g><g style="fill:#ffffff;fill-opacity:1;"><g transform="translate(52.574088, 14.948522)"><path style="stroke:none" d="M 4.421875 -5.984375 L 4.421875 -4.8125 L 1.984375 -4.8125 L 1.984375 -3.5625 L 3.8125 -3.5625 L 3.8125 -2.421875 L 1.984375 -2.421875 L 1.984375 0 L 0.53125 0 L 0.53125 -5.984375 Z M 4.421875 -5.984375 "/></g></g><g style="fill:#ffffff;fill-opacity:1;"><g transform="translate(57.240816, 14.948522)"><path style="stroke:none" d="M 1.984375 -1.125 L 3.90625 -1.125 L 3.90625 0 L 0.53125 0 L 0.53125 -5.984375 L 1.984375 -5.984375 Z M 1.984375 -1.125 "/></g></g><g style="fill:#ffffff;fill-opacity:1;"><g transform="translate(61.310345, 14.948522)"><path style="stroke:none" d="M 1.984375 -4.8125 L 1.984375 -3.609375 L 3.9375 -3.609375 L 3.9375 -2.484375 L 1.984375 -2.484375 L 1.984375 -1.171875 L 4.203125 -1.171875 L 4.203125 0 L 0.53125 0 L 0.53125 -5.984375 L 4.203125 -5.984375 L 4.203125 -4.8125 Z M 1.984375 -4.8125 "/></g></g><g style="fill:#ffffff;fill-opacity:1;"><g transform="translate(65.92589, 14.948522)"><path style="stroke:none" d="M 1.984375 -4.8125 L 1.984375 -3.609375 L 3.9375 -3.609375 L 3.9375 -2.484375 L 1.984375 -2.484375 L 1.984375 -1.171875 L 4.203125 -1.171875 L 4.203125 0 L 0.53125 0 L 0.53125 -5.984375 L 4.203125 -5.984375 L 4.203125 -4.8125 Z M 1.984375 -4.8125 "/></g></g><g style="fill:#ffffff;fill-opacity:1;"><g transform="translate(70.541435, 14.948522)"><path style="stroke:none" d="M 4.84375 -5.984375 L 4.84375 -4.8125 L 3.25 -4.8125 L 3.25 0 L 1.796875 0 L 1.796875 -4.8125 L 0.203125 -4.8125 L 0.203125 -5.984375 Z M 4.84375 -5.984375 "/></g></g><g style="fill:#ffffff;fill-opacity:1;"><g transform="translate(75.583557, 14.948522)"><path style="stroke:none" d="M 8.765625 -5.984375 L 7.203125 0 L 5.4375 0 L 4.484375 -3.9375 L 3.5 0 L 1.734375 0 L 0.21875 -5.984375 L 1.78125 -5.984375 L 2.640625 -1.625 L 3.703125 -5.984375 L 5.3125 -5.984375 L 6.328125 -1.625 L 7.203125 -5.984375 Z M 8.765625 -5.984375 "/></g></g><g style="fill:#ffffff;fill-opacity:1;"><g transform="translate(84.558693, 14.948522)"><path style="stroke:none" d="M 3.359375 0.0625 C 2.796875 0.0625 2.28125 -0.0664062 1.8125 -0.328125 C 1.34375 -0.585938 0.96875 -0.953125 0.6875 -1.421875 C 0.414062 -1.898438 0.28125 -2.429688 0.28125 -3.015625 C 0.28125 -3.597656 0.414062 -4.125 0.6875 -4.59375 C 0.96875 -5.0625 1.34375 -5.425781 1.8125 -5.6875 C 2.28125 -5.945312 2.796875 -6.078125 3.359375 -6.078125 C 3.921875 -6.078125 4.4375 -5.945312 4.90625 -5.6875 C 5.375 -5.425781 5.742188 -5.0625 6.015625 -4.59375 C 6.285156 -4.125 6.421875 -3.597656 6.421875 -3.015625 C 6.421875 -2.429688 6.285156 -1.898438 6.015625 -1.421875 C 5.742188 -0.953125 5.375 -0.585938 4.90625 -0.328125 C 4.4375 -0.0664062 3.921875 0.0625 3.359375 0.0625 Z M 3.359375 -1.265625 C 3.835938 -1.265625 4.21875 -1.425781 4.5 -1.75 C 4.789062 -2.070312 4.9375 -2.492188 4.9375 -3.015625 C 4.9375 -3.546875 4.789062 -3.96875 4.5 -4.28125 C 4.21875 -4.59375 3.835938 -4.75 3.359375 -4.75 C 2.878906 -4.75 2.492188 -4.59375 2.203125 -4.28125 C 1.921875 -3.96875 1.78125 -3.546875 1.78125 -3.015625 C 1.78125 -2.484375 1.921875 -2.054688 2.203125 -1.734375 C 2.492188 -1.421875 2.878906 -1.265625 3.359375 -1.265625 Z M 3.359375 -1.265625 "/></g></g><g style="fill:#ffffff;fill-opacity:1;"><g transform="translate(91.264454, 14.948522)"><path style="stroke:none" d="M 3.359375 0.0625 C 2.796875 0.0625 2.28125 -0.0664062 1.8125 -0.328125 C 1.34375 -0.585938 0.96875 -0.953125 0.6875 -1.421875 C 0.414062 -1.898438 0.28125 -2.429688 0.28125 -3.015625 C 0.28125 -3.597656 0.414062 -4.125 0.6875 -4.59375 C 0.96875 -5.0625 1.34375 -5.425781 1.8125 -5.6875 C 2.28125 -5.945312 2.796875 -6.078125 3.359375 -6.078125 C 3.921875 -6.078125 4.4375 -5.945312 4.90625 -5.6875 C 5.375 -5.425781 5.742188 -5.0625 6.015625 -4.59375 C 6.285156 -4.125 6.421875 -3.597656 6.421875 -3.015625 C 6.421875 -2.429688 6.285156 -1.898438 6.015625 -1.421875 C 5.742188 -0.953125 5.375 -0.585938 4.90625 -0.328125 C 4.4375 -0.0664062 3.921875 0.0625 3.359375 0.0625 Z M 3.359375 -1.265625 C 3.835938 -1.265625 4.21875 -1.425781 4.5 -1.75 C 4.789062 -2.070312 4.9375 -2.492188 4.9375 -3.015625 C 4.9375 -3.546875 4.789062 -3.96875 4.5 -4.28125 C 4.21875 -4.59375 3.835938 -4.75 3.359375 -4.75 C 2.878906 -4.75 2.492188 -4.59375 2.203125 -4.28125 C 1.921875 -3.96875 1.78125 -3.546875 1.78125 -3.015625 C 1.78125 -2.484375 1.921875 -2.054688 2.203125 -1.734375 C 2.492188 -1.421875 2.878906 -1.265625 3.359375 -1.265625 Z M 3.359375 -1.265625 "/></g></g><g style="fill:#ffffff;fill-opacity:1;"><g transform="translate(97.970214, 14.948522)"><path style="stroke:none" d="M 2.765625 -5.984375 C 3.398438 -5.984375 3.953125 -5.859375 4.421875 -5.609375 C 4.898438 -5.359375 5.265625 -5.003906 5.515625 -4.546875 C 5.773438 -4.097656 5.90625 -3.582031 5.90625 -3 C 5.90625 -2.40625 5.773438 -1.878906 5.515625 -1.421875 C 5.265625 -0.972656 4.898438 -0.625 4.421875 -0.375 C 3.953125 -0.125 3.398438 0 2.765625 0 L 0.53125 0 L 0.53125 -5.984375 Z M 2.671875 -1.265625 C 3.222656 -1.265625 3.648438 -1.414062 3.953125 -1.71875 C 4.265625 -2.019531 4.421875 -2.445312 4.421875 -3 C 4.421875 -3.550781 4.265625 -3.976562 3.953125 -4.28125 C 3.648438 -4.59375 3.222656 -4.75 2.671875 -4.75 L 1.984375 -4.75 L 1.984375 -1.265625 Z M 2.671875 -1.265625 "/></g></g><g style="fill:#ffffff;fill-opacity:1;"><g transform="translate(48.508324, 26.323777)"><path style="stroke:none" d="M 1.984375 -5.984375 L 1.984375 0 L 0.53125 0 L 0.53125 -5.984375 Z M 1.984375 -5.984375 "/></g></g><g style="fill:#ffffff;fill-opacity:1;"><g transform="translate(51.025115, 26.323777)"><path style="stroke:none" d="M 7.3125 -5.984375 L 7.3125 0 L 5.859375 0 L 5.859375 -3.59375 L 4.515625 0 L 3.328125 0 L 1.984375 -3.59375 L 1.984375 0 L 0.53125 0 L 0.53125 -5.984375 L 2.25 -5.984375 L 3.9375 -1.84375 L 5.59375 -5.984375 Z M 7.3125 -5.984375 "/></g></g><g style="fill:#ffffff;fill-opacity:1;"><g transform="translate(58.857037, 26.323777)"><path style="stroke:none" d="M 7.3125 -5.984375 L 7.3125 0 L 5.859375 0 L 5.859375 -3.59375 L 4.515625 0 L 3.328125 0 L 1.984375 -3.59375 L 1.984375 0 L 0.53125 0 L 0.53125 -5.984375 L 2.25 -5.984375 L 3.9375 -1.84375 L 5.59375 -5.984375 Z M 7.3125 -5.984375 "/></g></g><g style="fill:#ffffff;fill-opacity:1;"><g transform="translate(66.688959, 26.323777)"><path style="stroke:none" d="M 1.984375 -5.984375 L 1.984375 0 L 0.53125 0 L 0.53125 -5.984375 Z M 1.984375 -5.984375 "/></g></g><g style="fill:#ffffff;fill-opacity:1;"><g transform="translate(69.205751, 26.323777)"><path style="stroke:none" d="M 4.5 -4.09375 C 4.394531 -4.289062 4.238281 -4.441406 4.03125 -4.546875 C 3.832031 -4.648438 3.597656 -4.703125 3.328125 -4.703125 C 2.859375 -4.703125 2.476562 -4.546875 2.1875 -4.234375 C 1.90625 -3.929688 1.765625 -3.519531 1.765625 -3 C 1.765625 -2.445312 1.910156 -2.015625 2.203125 -1.703125 C 2.503906 -1.398438 2.921875 -1.25 3.453125 -1.25 C 3.804688 -1.25 4.101562 -1.335938 4.34375 -1.515625 C 4.59375 -1.703125 4.773438 -1.960938 4.890625 -2.296875 L 3.046875 -2.296875 L 3.046875 -3.375 L 6.21875 -3.375 L 6.21875 -2.015625 C 6.113281 -1.648438 5.929688 -1.3125 5.671875 -1 C 5.410156 -0.6875 5.082031 -0.429688 4.6875 -0.234375 C 4.289062 -0.046875 3.835938 0.046875 3.328125 0.046875 C 2.742188 0.046875 2.21875 -0.0820312 1.75 -0.34375 C 1.289062 -0.601562 0.929688 -0.960938 0.671875 -1.421875 C 0.410156 -1.878906 0.28125 -2.40625 0.28125 -3 C 0.28125 -3.59375 0.410156 -4.117188 0.671875 -4.578125 C 0.929688 -5.046875 1.289062 -5.410156 1.75 -5.671875 C 2.207031 -5.929688 2.734375 -6.0625 3.328125 -6.0625 C 4.046875 -6.0625 4.648438 -5.882812 5.140625 -5.53125 C 5.628906 -5.1875 5.953125 -4.707031 6.109375 -4.09375 Z M 4.5 -4.09375 "/></g></g><g style="fill:#ffffff;fill-opacity:1;"><g transform="translate(75.70675, 26.323777)"><path style="stroke:none" d="M 3.578125 0 L 2.34375 -2.265625 L 1.984375 -2.265625 L 1.984375 0 L 0.53125 0 L 0.53125 -5.984375 L 2.984375 -5.984375 C 3.453125 -5.984375 3.851562 -5.898438 4.1875 -5.734375 C 4.519531 -5.578125 4.765625 -5.351562 4.921875 -5.0625 C 5.085938 -4.769531 5.171875 -4.453125 5.171875 -4.109375 C 5.171875 -3.703125 5.054688 -3.34375 4.828125 -3.03125 C 4.609375 -2.71875 4.28125 -2.5 3.84375 -2.375 L 5.234375 0 Z M 1.984375 -3.296875 L 2.890625 -3.296875 C 3.160156 -3.296875 3.359375 -3.359375 3.484375 -3.484375 C 3.617188 -3.617188 3.6875 -3.804688 3.6875 -4.046875 C 3.6875 -4.273438 3.617188 -4.453125 3.484375 -4.578125 C 3.359375 -4.710938 3.160156 -4.78125 2.890625 -4.78125 L 1.984375 -4.78125 Z M 1.984375 -3.296875 "/></g></g><g style="fill:#ffffff;fill-opacity:1;"><g transform="translate(81.269286, 26.323777)"><path style="stroke:none" d="M 4.25 -1.0625 L 2.015625 -1.0625 L 1.65625 0 L 0.140625 0 L 2.296875 -5.984375 L 4 -5.984375 L 6.15625 0 L 4.609375 0 Z M 3.875 -2.1875 L 3.140625 -4.375 L 2.40625 -2.1875 Z M 3.875 -2.1875 "/></g></g><g style="fill:#ffffff;fill-opacity:1;"><g transform="translate(87.556997, 26.323777)"><path style="stroke:none" d="M 4.84375 -5.984375 L 4.84375 -4.8125 L 3.25 -4.8125 L 3.25 0 L 1.796875 0 L 1.796875 -4.8125 L 0.203125 -4.8125 L 0.203125 -5.984375 Z M 4.84375 -5.984375 "/></g></g><g style="fill:#ffffff;fill-opacity:1;"><g transform="translate(92.599118, 26.323777)"><path style="stroke:none" d="M 1.984375 -5.984375 L 1.984375 0 L 0.53125 0 L 0.53125 -5.984375 Z M 1.984375 -5.984375 "/></g></g><g style="fill:#ffffff;fill-opacity:1;"><g transform="translate(95.11591, 26.323777)"><path style="stroke:none" d="M 3.359375 0.0625 C 2.796875 0.0625 2.28125 -0.0664062 1.8125 -0.328125 C 1.34375 -0.585938 0.96875 -0.953125 0.6875 -1.421875 C 0.414062 -1.898438 0.28125 -2.429688 0.28125 -3.015625 C 0.28125 -3.597656 0.414062 -4.125 0.6875 -4.59375 C 0.96875 -5.0625 1.34375 -5.425781 1.8125 -5.6875 C 2.28125 -5.945312 2.796875 -6.078125 3.359375 -6.078125 C 3.921875 -6.078125 4.4375 -5.945312 4.90625 -5.6875 C 5.375 -5.425781 5.742188 -5.0625 6.015625 -4.59375 C 6.285156 -4.125 6.421875 -3.597656 6.421875 -3.015625 C 6.421875 -2.429688 6.285156 -1.898438 6.015625 -1.421875 C 5.742188 -0.953125 5.375 -0.585938 4.90625 -0.328125 C 4.4375 -0.0664062 3.921875 0.0625 3.359375 0.0625 Z M 3.359375 -1.265625 C 3.835938 -1.265625 4.21875 -1.425781 4.5 -1.75 C 4.789062 -2.070312 4.9375 -2.492188 4.9375 -3.015625 C 4.9375 -3.546875 4.789062 -3.96875 4.5 -4.28125 C 4.21875 -4.59375 3.835938 -4.75 3.359375 -4.75 C 2.878906 -4.75 2.492188 -4.59375 2.203125 -4.28125 C 1.921875 -3.96875 1.78125 -3.546875 1.78125 -3.015625 C 1.78125 -2.484375 1.921875 -2.054688 2.203125 -1.734375 C 2.492188 -1.421875 2.878906 -1.265625 3.359375 -1.265625 Z M 3.359375 -1.265625 "/></g></g><g clip-rule="nonzero" clip-path="url(#8b3ad23bc8)"><g style="fill:#ffffff;fill-opacity:1;"><g transform="translate(101.821671, 26.323777)"><path style="stroke:none" d="M 5.890625 0 L 4.421875 0 L 1.984375 -3.6875 L 1.984375 0 L 0.53125 0 L 0.53125 -5.984375 L 1.984375 -5.984375 L 4.421875 -2.28125 L 4.421875 -5.984375 L 5.890625 -5.984375 Z M 5.890625 0 "/></g></g></g></g></svg>