<svg xmlns="http://www.w3.org/2000/svg" xmlns:xlink="http://www.w3.org/1999/xlink" width="40" zoomAndPan="magnify" viewBox="0 0 30 30.000001" height="40" preserveAspectRatio="xMidYMid meet" version="1.2"><defs><clipPath id="fee758293f"><path d="M 0.484375 0 L 29.515625 0 L 29.515625 29 L 0.484375 29 Z M 0.484375 0 "/></clipPath></defs><g id="5b08298dee"><g clip-rule="nonzero" clip-path="url(#fee758293f)"><path style=" stroke:none;fill-rule:nonzero;fill:#ffffff;fill-opacity:1;" d="M 28.722656 10.085938 L 24.933594 7.214844 L 24.933594 1.671875 C 24.933594 1.535156 24.886719 1.417969 24.789062 1.320312 C 24.691406 1.222656 24.574219 1.175781 24.4375 1.175781 L 20.574219 1.175781 C 20.433594 1.175781 20.316406 1.222656 20.21875 1.320312 C 20.121094 1.417969 20.074219 1.535156 20.074219 1.671875 L 20.074219 3.609375 L 16.21875 0.703125 C 15.851562 0.429688 15.433594 0.292969 14.976562 0.292969 C 14.515625 0.292969 14.101562 0.429688 13.730469 0.703125 L 1.226562 10.085938 C 0.839844 10.363281 0.605469 10.742188 0.535156 11.214844 C 0.5 11.445312 0.511719 11.671875 0.570312 11.894531 C 0.628906 12.117188 0.730469 12.324219 0.871094 12.507812 C 1.011719 12.691406 1.179688 12.839844 1.382812 12.957031 C 1.582031 13.070312 1.796875 13.144531 2.027344 13.171875 C 2.109375 13.175781 2.195312 13.175781 2.277344 13.171875 C 2.660156 13.171875 3.007812 13.054688 3.3125 12.824219 L 3.398438 12.757812 L 3.398438 28.359375 C 3.398438 28.496094 3.445312 28.613281 3.542969 28.710938 C 3.640625 28.808594 3.757812 28.859375 3.894531 28.859375 L 26.078125 28.859375 C 26.21875 28.859375 26.335938 28.808594 26.433594 28.710938 C 26.53125 28.613281 26.578125 28.496094 26.578125 28.359375 L 26.578125 12.777344 L 26.664062 12.84375 C 26.96875 13.074219 27.3125 13.191406 27.699219 13.191406 C 28.277344 13.1875 28.738281 12.953125 29.085938 12.496094 C 29.378906 12.113281 29.488281 11.6875 29.417969 11.214844 C 29.34375 10.742188 29.113281 10.363281 28.722656 10.085938 Z M 21.054688 2.15625 L 23.9375 2.15625 L 23.9375 6.492188 L 21.046875 4.328125 Z M 19.027344 27.875 L 10.921875 27.875 L 10.921875 14.1875 C 10.921875 14.015625 10.980469 13.871094 11.097656 13.75 C 11.21875 13.628906 11.363281 13.570312 11.535156 13.570312 L 18.417969 13.570312 C 18.585938 13.570312 18.730469 13.628906 18.847656 13.75 C 18.96875 13.867188 19.027344 14.011719 19.027344 14.183594 Z M 25.597656 27.875 L 19.988281 27.875 L 19.988281 14.1875 C 19.988281 13.980469 19.949219 13.777344 19.867188 13.585938 C 19.789062 13.394531 19.675781 13.222656 19.527344 13.078125 C 19.378906 12.929688 19.210938 12.816406 19.015625 12.734375 C 18.824219 12.65625 18.625 12.613281 18.417969 12.613281 L 11.535156 12.613281 C 11.324219 12.613281 11.125 12.65625 10.933594 12.734375 C 10.738281 12.816406 10.570312 12.929688 10.421875 13.078125 C 10.273438 13.222656 10.160156 13.394531 10.082031 13.585938 C 10 13.777344 9.960938 13.980469 9.960938 14.1875 L 9.960938 27.875 L 4.351562 27.875 L 4.351562 12.074219 L 14.976562 4.109375 L 25.597656 12.074219 Z M 28.300781 11.941406 C 28.171875 12.105469 28 12.203125 27.792969 12.230469 C 27.585938 12.261719 27.394531 12.214844 27.226562 12.089844 L 15.273438 3.128906 C 15.082031 2.988281 14.890625 2.988281 14.695312 3.128906 L 2.726562 12.074219 C 2.554688 12.203125 2.367188 12.253906 2.15625 12.226562 C 1.953125 12.191406 1.785156 12.089844 1.660156 11.925781 C 1.539062 11.75 1.492188 11.558594 1.53125 11.347656 C 1.5625 11.140625 1.660156 10.976562 1.828125 10.851562 L 14.308594 1.472656 C 14.503906 1.324219 14.726562 1.25 14.976562 1.25 C 15.222656 1.25 15.445312 1.324219 15.640625 1.46875 L 28.148438 10.847656 C 28.3125 10.972656 28.414062 11.136719 28.445312 11.34375 C 28.476562 11.554688 28.429688 11.75 28.300781 11.921875 Z M 28.300781 11.941406 "/></g></g></svg>