<svg xmlns="http://www.w3.org/2000/svg" xmlns:xlink="http://www.w3.org/1999/xlink" width="40" zoomAndPan="magnify" viewBox="0 0 30 30.000001" height="40" preserveAspectRatio="xMidYMid meet" version="1.2"><defs><clipPath id="ce389a4b9e"><path d="M 15 8 L 27.8125 8 L 27.8125 29.03125 L 15 29.03125 Z M 15 8 "/></clipPath><clipPath id="599ca9f011"><path d="M 2.410156 8 L 15 8 L 15 29.03125 L 2.410156 29.03125 Z M 2.410156 8 "/></clipPath></defs><g id="19257042ef"><g clip-rule="nonzero" clip-path="url(#ce389a4b9e)"><path style=" stroke:none;fill-rule:nonzero;fill:#ffffff;fill-opacity:1;" d="M 25.746094 8.234375 C 25.484375 8.21875 25.230469 8.253906 24.980469 8.339844 C 24.734375 8.429688 24.511719 8.558594 24.316406 8.734375 C 24.121094 8.90625 23.964844 9.113281 23.847656 9.347656 C 23.734375 9.582031 23.667969 9.832031 23.652344 10.09375 L 23.703125 14.980469 C 23.714844 15.726562 23.472656 16.378906 22.988281 16.945312 L 22.90625 17.035156 C 22.8125 16.660156 22.605469 16.367188 22.285156 16.152344 C 21.261719 15.429688 19.964844 16.34375 19.882812 16.382812 C 19.847656 16.40625 19.816406 16.433594 19.785156 16.46875 L 18.597656 17.976562 C 17.960938 18.769531 17.472656 19.648438 17.136719 20.609375 C 16.804688 21.574219 16.636719 22.5625 16.644531 23.582031 L 16.644531 25.195312 C 16.367188 25.390625 16.148438 25.636719 15.992188 25.9375 C 15.835938 26.238281 15.757812 26.554688 15.757812 26.894531 L 15.757812 26.96875 C 15.761719 27.246094 15.816406 27.511719 15.921875 27.765625 C 16.03125 28.019531 16.183594 28.242188 16.378906 28.433594 C 16.574219 28.628906 16.800781 28.777344 17.058594 28.878906 C 17.3125 28.984375 17.578125 29.035156 17.855469 29.03125 L 21.652344 29.03125 C 21.925781 29.03125 22.191406 28.980469 22.449219 28.875 C 22.703125 28.769531 22.925781 28.617188 23.121094 28.421875 C 23.316406 28.226562 23.46875 28.003906 23.574219 27.746094 C 23.679688 27.492188 23.734375 27.226562 23.734375 26.949219 L 23.734375 26.875 C 23.730469 26.183594 23.453125 25.632812 22.902344 25.21875 L 22.902344 23.605469 L 25.664062 20.304688 C 26.257812 19.597656 26.707031 18.8125 27.023438 17.949219 C 27.339844 17.082031 27.496094 16.191406 27.496094 15.269531 L 27.496094 9.921875 C 27.5 9.691406 27.457031 9.46875 27.367188 9.257812 C 27.277344 9.042969 27.152344 8.859375 26.984375 8.699219 C 26.820312 8.539062 26.628906 8.417969 26.414062 8.339844 C 26.199219 8.257812 25.976562 8.222656 25.746094 8.234375 Z M 22.769531 26.949219 C 22.769531 27.097656 22.742188 27.242188 22.6875 27.378906 C 22.628906 27.515625 22.546875 27.636719 22.441406 27.742188 C 22.339844 27.847656 22.21875 27.929688 22.078125 27.984375 C 21.941406 28.042969 21.800781 28.070312 21.652344 28.070312 L 17.855469 28.070312 C 17.707031 28.070312 17.5625 28.042969 17.425781 27.984375 C 17.289062 27.929688 17.167969 27.847656 17.0625 27.742188 C 16.957031 27.636719 16.875 27.515625 16.820312 27.378906 C 16.761719 27.242188 16.734375 27.097656 16.734375 26.949219 L 16.734375 26.875 C 16.734375 26.726562 16.761719 26.582031 16.820312 26.445312 C 16.878906 26.308594 16.957031 26.1875 17.0625 26.082031 C 17.167969 25.980469 17.289062 25.898438 17.425781 25.839844 C 17.5625 25.785156 17.707031 25.753906 17.855469 25.753906 L 21.652344 25.753906 C 21.800781 25.753906 21.941406 25.785156 22.078125 25.839844 C 22.214844 25.898438 22.335938 25.980469 22.441406 26.082031 C 22.546875 26.1875 22.628906 26.308594 22.683594 26.445312 C 22.742188 26.582031 22.769531 26.726562 22.769531 26.875 Z M 26.535156 15.269531 C 26.53125 16.9375 25.996094 18.410156 24.929688 19.6875 L 22.046875 23.121094 C 21.972656 23.210938 21.933594 23.3125 21.933594 23.425781 L 21.933594 24.792969 L 17.609375 24.792969 L 17.609375 23.550781 C 17.597656 21.683594 18.179688 20.019531 19.355469 18.5625 L 20.507812 17.121094 C 20.691406 17.011719 21.332031 16.640625 21.726562 16.929688 C 21.859375 17.035156 21.941406 17.167969 21.976562 17.332031 C 22.011719 17.496094 21.992188 17.65625 21.914062 17.804688 L 20.953125 19.28125 C 20.875 19.386719 20.84375 19.503906 20.863281 19.636719 C 20.882812 19.765625 20.945312 19.871094 21.050781 19.953125 C 21.15625 20.03125 21.277344 20.0625 21.40625 20.042969 C 21.539062 20.023438 21.644531 19.960938 21.722656 19.855469 L 23.699219 17.5625 C 24.347656 16.816406 24.667969 15.949219 24.660156 14.964844 L 24.613281 10.105469 C 24.613281 9.359375 25.445312 9.195312 25.757812 9.195312 C 25.859375 9.183594 25.957031 9.195312 26.054688 9.226562 C 26.152344 9.257812 26.238281 9.308594 26.3125 9.378906 C 26.386719 9.449219 26.445312 9.53125 26.484375 9.625 C 26.523438 9.71875 26.539062 9.820312 26.535156 9.921875 Z M 26.535156 15.269531 "/></g><g clip-rule="nonzero" clip-path="url(#599ca9f011)"><path style=" stroke:none;fill-rule:nonzero;fill:#ffffff;fill-opacity:1;" d="M 13.339844 25.1875 L 13.339844 23.570312 C 13.347656 22.554688 13.183594 21.566406 12.851562 20.609375 C 12.515625 19.648438 12.03125 18.769531 11.398438 17.976562 L 10.191406 16.46875 C 10.164062 16.433594 10.132812 16.40625 10.097656 16.382812 C 10.039062 16.34375 8.742188 15.417969 7.714844 16.152344 C 7.402344 16.363281 7.199219 16.652344 7.101562 17.015625 L 7.019531 16.925781 C 6.53125 16.359375 6.292969 15.707031 6.304688 14.964844 L 6.347656 10.074219 C 6.328125 9.8125 6.261719 9.566406 6.144531 9.332031 C 6.027344 9.097656 5.871094 8.894531 5.671875 8.71875 C 5.476562 8.546875 5.253906 8.417969 5.003906 8.335938 C 4.757812 8.25 4.503906 8.21875 4.242188 8.234375 C 4.011719 8.222656 3.789062 8.257812 3.578125 8.339844 C 3.363281 8.421875 3.171875 8.542969 3.007812 8.703125 C 2.84375 8.863281 2.71875 9.046875 2.628906 9.257812 C 2.542969 9.472656 2.5 9.691406 2.5 9.921875 L 2.5 15.269531 C 2.5 16.191406 2.660156 17.082031 2.972656 17.949219 C 3.289062 18.8125 3.742188 19.597656 4.332031 20.304688 L 7.097656 23.605469 L 7.097656 25.21875 C 6.546875 25.632812 6.269531 26.183594 6.265625 26.875 L 6.265625 26.949219 C 6.265625 27.226562 6.316406 27.492188 6.421875 27.746094 C 6.527344 28.003906 6.679688 28.226562 6.875 28.421875 C 7.070312 28.617188 7.292969 28.769531 7.550781 28.875 C 7.804688 28.980469 8.070312 29.03125 8.347656 29.03125 L 12.144531 29.03125 C 12.417969 29.03125 12.683594 28.980469 12.941406 28.875 C 13.195312 28.769531 13.421875 28.617188 13.617188 28.421875 C 13.808594 28.226562 13.960938 28.003906 14.066406 27.746094 C 14.171875 27.492188 14.226562 27.226562 14.226562 26.949219 L 14.226562 26.875 C 14.21875 26.160156 13.925781 25.597656 13.339844 25.1875 Z M 5.066406 19.6875 C 4 18.410156 3.464844 16.9375 3.460938 15.269531 L 3.460938 9.925781 C 3.457031 9.820312 3.476562 9.722656 3.515625 9.625 C 3.554688 9.53125 3.609375 9.445312 3.6875 9.375 C 3.761719 9.304688 3.851562 9.253906 3.949219 9.222656 C 4.046875 9.191406 4.148438 9.183594 4.25 9.195312 C 4.5625 9.195312 5.375 9.359375 5.394531 10.085938 L 5.34375 14.972656 C 5.335938 15.960938 5.65625 16.828125 6.304688 17.574219 L 8.269531 19.867188 C 8.347656 19.972656 8.453125 20.035156 8.585938 20.054688 C 8.71875 20.070312 8.835938 20.042969 8.941406 19.960938 C 9.046875 19.882812 9.109375 19.777344 9.128906 19.644531 C 9.148438 19.515625 9.117188 19.394531 9.039062 19.289062 L 8.078125 17.8125 C 8 17.664062 7.980469 17.507812 8.019531 17.34375 C 8.054688 17.179688 8.136719 17.042969 8.269531 16.9375 C 8.667969 16.660156 9.3125 17.019531 9.492188 17.132812 L 10.644531 18.574219 C 11.816406 20.023438 12.402344 21.683594 12.394531 23.550781 L 12.394531 24.792969 L 8.066406 24.792969 L 8.066406 23.425781 C 8.066406 23.3125 8.03125 23.210938 7.957031 23.121094 Z M 13.261719 26.949219 C 13.261719 27.097656 13.234375 27.242188 13.179688 27.378906 C 13.121094 27.515625 13.039062 27.636719 12.933594 27.742188 C 12.832031 27.847656 12.710938 27.929688 12.570312 27.984375 C 12.433594 28.042969 12.292969 28.070312 12.144531 28.070312 L 8.347656 28.070312 C 8.199219 28.070312 8.054688 28.042969 7.917969 27.984375 C 7.78125 27.929688 7.660156 27.847656 7.554688 27.742188 C 7.449219 27.636719 7.367188 27.515625 7.3125 27.378906 C 7.253906 27.242188 7.226562 27.097656 7.226562 26.949219 L 7.226562 26.875 C 7.226562 26.726562 7.257812 26.582031 7.3125 26.445312 C 7.371094 26.308594 7.449219 26.1875 7.554688 26.082031 C 7.660156 25.980469 7.78125 25.898438 7.917969 25.839844 C 8.054688 25.785156 8.199219 25.753906 8.347656 25.753906 L 12.144531 25.753906 C 12.292969 25.753906 12.433594 25.785156 12.570312 25.839844 C 12.707031 25.898438 12.828125 25.980469 12.933594 26.082031 C 13.039062 26.1875 13.121094 26.308594 13.175781 26.445312 C 13.234375 26.582031 13.261719 26.726562 13.261719 26.875 Z M 13.261719 26.949219 "/></g><path style=" stroke:none;fill-rule:nonzero;fill:#ffffff;fill-opacity:1;" d="M 23.113281 5.152344 C 23.21875 4.34375 23.109375 3.5625 22.785156 2.808594 C 22.460938 2.058594 21.96875 1.445312 21.304688 0.964844 C 20.78125 0.597656 20.203125 0.359375 19.570312 0.25 C 18.9375 0.140625 18.3125 0.167969 17.695312 0.335938 C 16.644531 0.589844 15.746094 1.109375 15 1.894531 C 14.253906 1.109375 13.355469 0.589844 12.300781 0.335938 C 11.683594 0.167969 11.058594 0.140625 10.425781 0.25 C 9.796875 0.359375 9.21875 0.597656 8.691406 0.964844 C 8.027344 1.445312 7.535156 2.058594 7.210938 2.808594 C 6.886719 3.5625 6.777344 4.34375 6.886719 5.152344 C 7.179688 8.714844 10.503906 12.84375 14.78125 14.972656 C 14.925781 15.046875 15.070312 15.046875 15.214844 14.972656 C 19.492188 12.84375 22.820312 8.714844 23.113281 5.152344 Z M 15 14 C 11.152344 12.011719 8.105469 8.234375 7.847656 5.074219 C 7.761719 4.433594 7.84375 3.816406 8.097656 3.21875 C 8.347656 2.621094 8.734375 2.128906 9.253906 1.746094 C 9.8125 1.339844 10.433594 1.144531 11.121094 1.152344 C 11.445312 1.15625 11.765625 1.195312 12.082031 1.273438 C 13.136719 1.496094 13.96875 2.054688 14.574219 2.945312 C 14.664062 3.121094 14.808594 3.207031 15.003906 3.207031 C 15.199219 3.207031 15.34375 3.121094 15.429688 2.945312 C 16.039062 2.054688 16.871094 1.496094 17.925781 1.273438 C 18.410156 1.140625 18.898438 1.113281 19.390625 1.199219 C 19.882812 1.285156 20.335938 1.46875 20.746094 1.753906 C 21.269531 2.140625 21.652344 2.632812 21.90625 3.226562 C 22.15625 3.824219 22.242188 4.445312 22.15625 5.085938 C 21.890625 8.210938 18.84375 12.011719 15 14 Z M 15 14 "/></g></svg>