<svg xmlns="http://www.w3.org/2000/svg" xmlns:xlink="http://www.w3.org/1999/xlink" width="40" zoomAndPan="magnify" viewBox="0 0 30 30.000001" height="40" preserveAspectRatio="xMidYMid meet" version="1.2"><defs><clipPath id="b341ac1c9f"><path d="M 3.886719 0 L 26.386719 0 L 26.386719 29 L 3.886719 29 Z M 3.886719 0 "/></clipPath></defs><g id="28199f48e8"><g clip-rule="nonzero" clip-path="url(#b341ac1c9f)"><path style=" stroke:none;fill-rule:nonzero;fill:#ffffff;fill-opacity:1;" d="M 24.640625 1.488281 C 24.640625 0.710938 23.886719 0.03125 23.027344 0.03125 L 5.488281 0.03125 C 5.277344 0.03125 5.070312 0.0742188 4.875 0.15625 C 4.675781 0.238281 4.503906 0.355469 4.351562 0.507812 C 4.199219 0.65625 4.082031 0.832031 4 1.027344 C 3.921875 1.226562 3.878906 1.433594 3.878906 1.644531 L 3.878906 25.9375 C 3.878906 26.136719 3.914062 26.328125 3.988281 26.515625 C 4.058594 26.703125 4.164062 26.871094 4.296875 27.019531 C 4.433594 27.167969 4.589844 27.285156 4.765625 27.378906 C 4.945312 27.46875 5.136719 27.523438 5.335938 27.542969 C 5.355469 27.742188 5.410156 27.933594 5.5 28.113281 C 5.589844 28.292969 5.710938 28.449219 5.859375 28.585938 C 6.007812 28.71875 6.179688 28.824219 6.367188 28.894531 C 6.554688 28.96875 6.75 29.003906 6.953125 29 L 24.488281 29 C 25.40625 29 26.101562 28.246094 26.101562 27.242188 L 26.101562 2.96875 C 26.089844 2.214844 25.429688 1.570312 24.640625 1.488281 Z M 4.378906 25.9375 L 4.378906 1.644531 C 4.378906 1.5 4.410156 1.355469 4.464844 1.21875 C 4.519531 1.085938 4.601562 0.964844 4.707031 0.859375 C 4.808594 0.757812 4.929688 0.675781 5.066406 0.617188 C 5.203125 0.5625 5.34375 0.535156 5.488281 0.535156 L 23.015625 0.535156 C 23.300781 0.527344 23.550781 0.617188 23.761719 0.804688 C 23.976562 0.992188 24.097656 1.226562 24.128906 1.507812 L 24.128906 25.796875 C 24.128906 26.523438 23.660156 27.054688 23.015625 27.054688 L 5.488281 27.054688 C 5.34375 27.050781 5.199219 27.023438 5.0625 26.96875 C 4.929688 26.910156 4.808594 26.828125 4.703125 26.722656 C 4.597656 26.621094 4.519531 26.5 4.464844 26.363281 C 4.40625 26.226562 4.378906 26.082031 4.378906 25.9375 Z M 25.589844 27.246094 C 25.589844 27.972656 25.121094 28.5 24.476562 28.5 L 6.953125 28.5 C 6.675781 28.5 6.433594 28.410156 6.226562 28.230469 C 6.019531 28.050781 5.894531 27.824219 5.855469 27.550781 L 23.015625 27.550781 C 23.9375 27.550781 24.632812 26.800781 24.632812 25.796875 L 24.632812 2 C 24.886719 2.027344 25.101562 2.128906 25.285156 2.3125 C 25.464844 2.496094 25.566406 2.714844 25.589844 2.96875 Z M 25.589844 27.246094 "/></g><path style=" stroke:none;fill-rule:nonzero;fill:#ffffff;fill-opacity:1;" d="M 19.703125 24.476562 L 8.820312 24.476562 C 8.75 24.476562 8.691406 24.5 8.640625 24.546875 C 8.59375 24.597656 8.566406 24.65625 8.566406 24.726562 C 8.566406 24.796875 8.59375 24.855469 8.640625 24.902344 C 8.691406 24.953125 8.75 24.976562 8.820312 24.976562 L 19.703125 24.976562 C 19.769531 24.976562 19.828125 24.953125 19.878906 24.902344 C 19.925781 24.855469 19.953125 24.796875 19.953125 24.726562 C 19.953125 24.65625 19.925781 24.597656 19.878906 24.546875 C 19.828125 24.5 19.769531 24.476562 19.703125 24.476562 Z M 19.703125 24.476562 "/><path style=" stroke:none;fill-rule:nonzero;fill:#ffffff;fill-opacity:1;" d="M 8.519531 6.703125 C 8.585938 6.703125 8.644531 6.679688 8.695312 6.628906 C 8.746094 6.582031 8.769531 6.523438 8.769531 6.453125 L 8.769531 4.988281 L 9.488281 4.988281 C 9.644531 4.988281 9.792969 4.960938 9.933594 4.898438 C 10.074219 4.839844 10.203125 4.757812 10.308594 4.648438 C 10.417969 4.539062 10.503906 4.414062 10.5625 4.273438 C 10.621094 4.128906 10.652344 3.980469 10.652344 3.828125 L 10.652344 3.769531 C 10.652344 3.617188 10.621094 3.46875 10.5625 3.324219 C 10.503906 3.183594 10.417969 3.058594 10.308594 2.949219 C 10.203125 2.839844 10.074219 2.753906 9.933594 2.695312 C 9.792969 2.636719 9.644531 2.609375 9.488281 2.605469 L 8.519531 2.605469 C 8.449219 2.605469 8.390625 2.632812 8.339844 2.679688 C 8.292969 2.730469 8.265625 2.789062 8.265625 2.859375 L 8.265625 6.453125 C 8.265625 6.523438 8.292969 6.582031 8.339844 6.628906 C 8.390625 6.679688 8.449219 6.703125 8.519531 6.703125 Z M 10.148438 3.769531 L 10.148438 3.828125 C 10.148438 4.007812 10.085938 4.164062 9.957031 4.292969 C 9.828125 4.421875 9.671875 4.488281 9.488281 4.488281 L 8.769531 4.488281 L 8.769531 3.109375 L 9.488281 3.109375 C 9.671875 3.109375 9.828125 3.171875 9.957031 3.300781 C 10.085938 3.429688 10.148438 3.585938 10.148438 3.769531 Z M 10.148438 3.769531 "/><path style=" stroke:none;fill-rule:nonzero;fill:#ffffff;fill-opacity:1;" d="M 10.914062 6.6875 C 10.976562 6.710938 11.039062 6.710938 11.105469 6.683594 C 11.167969 6.65625 11.210938 6.613281 11.238281 6.546875 L 11.878906 4.988281 L 13.085938 4.988281 L 13.730469 6.546875 C 13.753906 6.613281 13.800781 6.65625 13.863281 6.683594 C 13.929688 6.710938 13.992188 6.710938 14.058594 6.683594 C 14.121094 6.660156 14.167969 6.613281 14.191406 6.550781 C 14.21875 6.484375 14.21875 6.421875 14.195312 6.359375 L 12.726562 2.761719 C 12.683594 2.660156 12.605469 2.609375 12.492188 2.605469 C 12.382812 2.605469 12.304688 2.660156 12.261719 2.761719 L 11.46875 4.640625 L 10.773438 6.359375 C 10.746094 6.421875 10.746094 6.488281 10.773438 6.550781 C 10.800781 6.613281 10.847656 6.660156 10.914062 6.6875 Z M 12.472656 3.519531 L 12.871094 4.488281 L 12.085938 4.488281 Z M 12.472656 3.519531 "/><path style=" stroke:none;fill-rule:nonzero;fill:#ffffff;fill-opacity:1;" d="M 16.390625 6.203125 L 15.210938 6.203125 C 15.140625 6.203125 15.082031 6.226562 15.03125 6.277344 C 14.984375 6.324219 14.960938 6.382812 14.960938 6.453125 C 14.960938 6.523438 14.984375 6.582031 15.03125 6.628906 C 15.082031 6.679688 15.140625 6.703125 15.210938 6.703125 L 16.390625 6.703125 C 16.59375 6.703125 16.761719 6.632812 16.902344 6.492188 C 17.046875 6.351562 17.117188 6.179688 17.117188 5.980469 L 17.117188 5.128906 C 17.117188 4.929688 17.046875 4.757812 16.902344 4.617188 C 16.761719 4.476562 16.59375 4.40625 16.390625 4.40625 L 15.683594 4.40625 C 15.535156 4.40625 15.460938 4.332031 15.460938 4.183594 L 15.460938 3.328125 C 15.460938 3.183594 15.535156 3.109375 15.683594 3.109375 L 16.863281 3.109375 C 16.933594 3.109375 16.992188 3.085938 17.042969 3.035156 C 17.089844 2.988281 17.117188 2.925781 17.117188 2.859375 C 17.117188 2.789062 17.089844 2.730469 17.042969 2.679688 C 16.992188 2.632812 16.933594 2.605469 16.863281 2.605469 L 15.683594 2.605469 C 15.484375 2.605469 15.3125 2.675781 15.171875 2.820312 C 15.03125 2.960938 14.960938 3.128906 14.960938 3.328125 L 14.960938 4.183594 C 14.960938 4.382812 15.03125 4.554688 15.171875 4.695312 C 15.3125 4.835938 15.484375 4.90625 15.683594 4.90625 L 16.390625 4.90625 C 16.539062 4.910156 16.613281 4.984375 16.613281 5.128906 L 16.613281 5.980469 C 16.613281 6.128906 16.539062 6.203125 16.390625 6.203125 Z M 16.390625 6.203125 "/><path style=" stroke:none;fill-rule:nonzero;fill:#ffffff;fill-opacity:1;" d="M 19.527344 6.203125 L 18.34375 6.203125 C 18.273438 6.203125 18.214844 6.226562 18.164062 6.273438 C 18.117188 6.324219 18.089844 6.382812 18.089844 6.453125 C 18.089844 6.523438 18.117188 6.582031 18.164062 6.628906 C 18.214844 6.679688 18.273438 6.703125 18.34375 6.703125 L 19.527344 6.703125 C 19.726562 6.707031 19.898438 6.636719 20.042969 6.496094 C 20.183594 6.351562 20.257812 6.183594 20.257812 5.980469 L 20.257812 5.128906 C 20.257812 4.929688 20.183594 4.757812 20.042969 4.617188 C 19.902344 4.476562 19.730469 4.40625 19.53125 4.40625 L 18.816406 4.40625 C 18.671875 4.40625 18.597656 4.332031 18.59375 4.183594 L 18.59375 3.328125 C 18.597656 3.183594 18.671875 3.109375 18.816406 3.109375 L 20.003906 3.109375 C 20.074219 3.109375 20.132812 3.085938 20.183594 3.035156 C 20.230469 2.988281 20.257812 2.925781 20.257812 2.859375 C 20.257812 2.789062 20.230469 2.730469 20.183594 2.679688 C 20.132812 2.632812 20.074219 2.605469 20.003906 2.605469 L 18.816406 2.605469 C 18.617188 2.605469 18.445312 2.675781 18.304688 2.820312 C 18.164062 2.960938 18.09375 3.128906 18.09375 3.328125 L 18.09375 4.183594 C 18.09375 4.382812 18.164062 4.554688 18.304688 4.695312 C 18.445312 4.835938 18.617188 4.90625 18.816406 4.90625 L 19.527344 4.90625 C 19.675781 4.90625 19.75 4.980469 19.75 5.128906 L 19.75 5.980469 C 19.75 6.128906 19.675781 6.203125 19.527344 6.203125 Z M 19.527344 6.203125 "/><path style=" stroke:none;fill-rule:nonzero;fill:#ffffff;fill-opacity:1;" d="M 14.257812 21.898438 C 14.523438 21.898438 14.789062 21.882812 15.054688 21.847656 C 15.335938 21.816406 15.613281 21.761719 15.890625 21.691406 C 16.164062 21.625 16.433594 21.535156 16.699219 21.433594 C 16.964844 21.328125 17.21875 21.207031 17.46875 21.070312 C 17.714844 20.929688 17.953125 20.777344 18.183594 20.609375 C 18.414062 20.441406 18.628906 20.261719 18.835938 20.0625 C 19.039062 19.867188 19.230469 19.660156 19.410156 19.4375 C 19.589844 19.21875 19.753906 18.988281 19.902344 18.746094 C 20.050781 18.503906 20.183594 18.253906 20.300781 17.996094 C 20.417969 17.734375 20.515625 17.472656 20.597656 17.199219 C 20.683594 16.925781 20.746094 16.652344 20.792969 16.371094 C 20.839844 16.089844 20.871094 15.808594 20.882812 15.527344 C 20.890625 15.242188 20.882812 14.960938 20.859375 14.675781 C 20.832031 14.394531 20.789062 14.113281 20.726562 13.835938 C 20.667969 13.558594 20.589844 13.289062 20.492188 13.019531 C 20.394531 12.753906 20.28125 12.492188 20.152344 12.242188 C 20.023438 11.988281 19.875 11.746094 19.714844 11.511719 C 19.554688 11.277344 19.378906 11.054688 19.1875 10.84375 C 19 10.632812 18.796875 10.433594 18.582031 10.25 C 18.367188 10.066406 18.140625 9.894531 17.902344 9.738281 C 17.664062 9.582031 17.417969 9.441406 17.164062 9.316406 C 16.910156 9.191406 16.648438 9.085938 16.378906 8.996094 C 16.109375 8.902344 15.835938 8.832031 15.558594 8.773438 C 15.277344 8.71875 14.996094 8.683594 14.714844 8.664062 C 14.429688 8.644531 14.148438 8.640625 13.863281 8.660156 C 13.582031 8.675781 13.300781 8.710938 13.019531 8.765625 C 12.742188 8.816406 12.46875 8.886719 12.199219 8.976562 C 11.929688 9.066406 11.664062 9.171875 11.410156 9.292969 C 11.152344 9.414062 10.90625 9.550781 10.667969 9.707031 C 10.429688 9.859375 10.199219 10.03125 9.984375 10.210938 C 9.765625 10.394531 9.5625 10.59375 9.371094 10.800781 C 9.179688 11.011719 9.003906 11.230469 8.839844 11.464844 C 8.675781 11.695312 8.527344 11.9375 8.398438 12.191406 C 8.265625 12.441406 8.148438 12.699219 8.050781 12.964844 C 7.953125 13.234375 7.871094 13.503906 7.804688 13.78125 C 7.742188 14.058594 7.695312 14.335938 7.667969 14.621094 C 7.640625 14.902344 7.628906 15.183594 7.640625 15.46875 C 7.648438 15.753906 7.675781 16.035156 7.71875 16.316406 C 7.761719 16.59375 7.824219 16.871094 7.90625 17.144531 C 7.988281 17.417969 8.082031 17.683594 8.199219 17.941406 C 8.3125 18.203125 8.445312 18.453125 8.589844 18.695312 C 8.738281 18.941406 8.898438 19.171875 9.074219 19.394531 C 9.253906 19.617188 9.441406 19.828125 9.644531 20.023438 C 9.851562 20.222656 10.066406 20.40625 10.292969 20.578125 C 10.519531 20.746094 10.757812 20.902344 11.003906 21.039062 C 11.25 21.179688 11.507812 21.304688 11.769531 21.410156 C 12.03125 21.515625 12.300781 21.605469 12.578125 21.679688 C 12.851562 21.75 13.128906 21.804688 13.410156 21.839844 C 13.691406 21.878906 13.976562 21.894531 14.257812 21.898438 Z M 12.457031 9.429688 C 11.773438 10.121094 11.289062 10.929688 11.003906 11.859375 C 10.488281 11.753906 9.980469 11.621094 9.480469 11.453125 C 10.265625 10.476562 11.257812 9.800781 12.457031 9.429688 Z M 19.035156 11.453125 C 18.535156 11.621094 18.027344 11.753906 17.511719 11.859375 C 17.230469 10.929688 16.746094 10.121094 16.0625 9.429688 C 17.257812 9.800781 18.25 10.476562 19.035156 11.453125 Z M 19.34375 18.671875 C 18.792969 18.484375 18.230469 18.328125 17.660156 18.207031 C 17.898438 17.328125 18.023438 16.433594 18.035156 15.519531 L 20.367188 15.519531 C 20.328125 16.667969 19.984375 17.71875 19.34375 18.671875 Z M 19.027344 19.109375 C 18.242188 20.082031 17.253906 20.75 16.0625 21.117188 C 16.746094 20.429688 17.230469 19.621094 17.511719 18.691406 C 18.027344 18.792969 18.535156 18.929688 19.035156 19.09375 Z M 9.488281 19.109375 C 9.984375 18.945312 10.496094 18.808594 11.011719 18.707031 C 11.292969 19.636719 11.777344 20.445312 12.460938 21.132812 C 11.257812 20.761719 10.265625 20.082031 9.480469 19.097656 Z M 17.019531 11.964844 C 16.1875 12.105469 15.351562 12.179688 14.507812 12.191406 L 14.507812 9.179688 C 15.554688 9.324219 16.46875 10.398438 17.011719 11.953125 Z M 14.507812 21.386719 L 14.507812 18.375 C 15.351562 18.382812 16.1875 18.460938 17.019531 18.601562 C 16.46875 20.15625 15.554688 21.226562 14.511719 21.375 Z M 14.507812 17.871094 L 14.507812 15.519531 L 17.519531 15.519531 C 17.503906 16.398438 17.382812 17.261719 17.148438 18.105469 C 16.273438 17.957031 15.394531 17.878906 14.511719 17.871094 Z M 14.507812 15.027344 L 14.507812 12.679688 C 15.398438 12.667969 16.28125 12.582031 17.15625 12.429688 C 17.394531 13.277344 17.515625 14.140625 17.53125 15.019531 Z M 14.003906 9.179688 L 14.003906 12.191406 C 13.164062 12.179688 12.324219 12.105469 11.496094 11.964844 C 12.050781 10.398438 12.960938 9.324219 14.007812 9.175781 Z M 14.003906 12.695312 L 14.003906 15.019531 L 10.992188 15.019531 C 11.007812 14.140625 11.132812 13.277344 11.363281 12.429688 C 12.238281 12.582031 13.121094 12.667969 14.007812 12.679688 Z M 14.003906 15.539062 L 14.003906 17.882812 C 13.113281 17.894531 12.230469 17.980469 11.355469 18.132812 C 11.121094 17.277344 10.996094 16.40625 10.984375 15.519531 Z M 14.003906 18.382812 L 14.003906 21.398438 C 12.957031 21.25 12.050781 20.179688 11.496094 18.621094 C 12.324219 18.472656 13.164062 18.390625 14.007812 18.371094 Z M 18.035156 15.019531 C 18.023438 14.109375 17.898438 13.214844 17.660156 12.335938 C 18.230469 12.214844 18.792969 12.0625 19.34375 11.871094 C 19.984375 12.820312 20.324219 13.871094 20.367188 15.019531 Z M 9.175781 11.878906 C 9.726562 12.066406 10.285156 12.222656 10.855469 12.34375 C 10.621094 13.21875 10.496094 14.109375 10.484375 15.019531 L 8.148438 15.019531 C 8.191406 13.875 8.535156 12.828125 9.175781 11.878906 Z M 10.484375 15.519531 C 10.496094 16.429688 10.621094 17.324219 10.855469 18.203125 C 10.285156 18.320312 9.726562 18.476562 9.175781 18.664062 C 8.535156 17.714844 8.195312 16.664062 8.148438 15.519531 Z M 10.484375 15.519531 "/></g></svg>