<svg xmlns="http://www.w3.org/2000/svg" xmlns:xlink="http://www.w3.org/1999/xlink" width="40" zoomAndPan="magnify" viewBox="0 0 30 30.000001" height="40" preserveAspectRatio="xMidYMid meet" version="1.2"><defs><clipPath id="d27636023c"><path d="M 15 12 L 29.515625 12 L 29.515625 28.398438 L 15 28.398438 Z M 15 12 "/></clipPath><clipPath id="39a304f0b5"><path d="M 0.484375 12 L 15 12 L 15 28.398438 L 0.484375 28.398438 Z M 0.484375 12 "/></clipPath></defs><g id="7fea9a3798"><g clip-rule="nonzero" clip-path="url(#d27636023c)"><path style=" stroke:none;fill-rule:nonzero;fill:#ffffff;fill-opacity:1;" d="M 29.0625 12.652344 C 28.769531 12.355469 28.363281 12.226562 27.960938 12.292969 C 27.546875 12.363281 27.207031 12.609375 27.019531 12.980469 L 25.148438 16.722656 C 25.039062 16.949219 24.886719 17.148438 24.683594 17.359375 C 24.648438 17.402344 24.621094 17.445312 24.585938 17.484375 C 23.707031 16.785156 22.460938 16.660156 21.410156 17.25 C 20.675781 17.867188 19.648438 18.4375 18.320312 18.957031 C 17.488281 19.417969 16.925781 20.253906 16.808594 21.195312 L 16.351562 24.871094 L 15.652344 24.871094 L 15.652344 28.179688 L 23.597656 28.179688 L 23.597656 24.871094 L 23.339844 24.871094 L 27.117188 20.554688 C 27.398438 20.234375 27.601562 19.863281 27.726562 19.453125 L 29.386719 13.917969 C 29.515625 13.464844 29.394531 12.980469 29.0625 12.652344 Z M 22.933594 27.515625 L 16.308594 27.515625 L 16.308594 25.527344 L 22.933594 25.527344 Z M 28.75 13.726562 L 27.089844 19.253906 C 26.992188 19.574219 26.835938 19.863281 26.617188 20.109375 L 22.460938 24.863281 L 17.03125 24.863281 L 17.476562 21.269531 C 17.566406 20.535156 18.003906 19.890625 18.605469 19.546875 C 19.964844 19.019531 21.054688 18.410156 21.796875 17.78125 C 22.5625 17.355469 23.515625 17.449219 24.1875 17.992188 C 23.167969 19.265625 22.152344 20.234375 21.101562 20.941406 L 20.828125 21.125 L 21.199219 21.675781 L 21.472656 21.488281 C 22.761719 20.632812 23.988281 19.40625 25.1875 17.78125 C 25.414062 17.554688 25.601562 17.292969 25.746094 17.003906 L 27.617188 13.261719 C 27.707031 13.082031 27.871094 12.960938 28.070312 12.929688 C 28.269531 12.902344 28.460938 12.964844 28.597656 13.101562 C 28.753906 13.273438 28.808594 13.507812 28.75 13.726562 Z M 28.75 13.726562 "/></g><g clip-rule="nonzero" clip-path="url(#39a304f0b5)"><path style=" stroke:none;fill-rule:nonzero;fill:#ffffff;fill-opacity:1;" d="M 13.175781 21.195312 C 13.058594 20.253906 12.496094 19.417969 11.625 18.9375 C 10.332031 18.429688 9.308594 17.863281 8.519531 17.210938 C 7.519531 16.65625 6.277344 16.777344 5.398438 17.484375 C 5.359375 17.429688 5.316406 17.382812 5.277344 17.328125 C 5.097656 17.148438 4.953125 16.949219 4.84375 16.722656 L 2.972656 12.980469 C 2.789062 12.609375 2.445312 12.355469 2.039062 12.292969 C 1.628906 12.226562 1.222656 12.355469 0.9375 12.652344 C 0.605469 12.980469 0.484375 13.464844 0.613281 13.917969 L 2.265625 19.445312 C 2.390625 19.855469 2.597656 20.226562 2.875 20.550781 L 6.65625 24.871094 L 6.378906 24.871094 L 6.378906 28.179688 L 14.328125 28.179688 L 14.328125 24.871094 L 13.636719 24.871094 Z M 3.378906 20.117188 C 3.15625 19.863281 3 19.574219 2.90625 19.261719 L 1.238281 13.726562 C 1.175781 13.507812 1.230469 13.273438 1.390625 13.117188 C 1.53125 12.972656 1.726562 12.910156 1.921875 12.945312 C 2.121094 12.980469 2.289062 13.097656 2.375 13.273438 L 4.25 17.019531 C 4.390625 17.304688 4.578125 17.566406 4.777344 17.757812 C 6.011719 19.417969 7.238281 20.644531 8.527344 21.503906 L 8.800781 21.6875 L 9.171875 21.140625 L 8.898438 20.953125 C 7.847656 20.253906 6.839844 19.292969 5.8125 18.003906 C 6.484375 17.464844 7.429688 17.359375 8.15625 17.753906 C 8.945312 18.417969 10.035156 19.027344 11.359375 19.535156 C 12.003906 19.890625 12.441406 20.542969 12.53125 21.277344 L 12.976562 24.871094 L 7.546875 24.871094 Z M 13.664062 27.515625 L 7.046875 27.515625 L 7.046875 25.527344 L 13.667969 25.527344 L 13.667969 27.515625 Z M 13.664062 27.515625 "/></g><path style=" stroke:none;fill-rule:nonzero;fill:#ffffff;fill-opacity:1;" d="M 23.359375 11.554688 C 25.667969 9.242188 25.667969 5.472656 23.359375 3.160156 C 21.054688 0.855469 17.304688 0.851562 14.992188 3.132812 C 12.675781 0.84375 8.929688 0.851562 6.628906 3.160156 C 4.316406 5.472656 4.316406 9.242188 6.628906 11.554688 L 13.921875 18.855469 C 14.21875 19.152344 14.601562 19.292969 14.992188 19.292969 C 15.382812 19.292969 15.769531 19.152344 16.0625 18.855469 Z M 14.390625 18.390625 L 7.085938 11.085938 C 6.09375 10.09375 5.542969 8.769531 5.542969 7.355469 C 5.542969 5.945312 6.09375 4.621094 7.085938 3.625 C 8.117188 2.597656 9.464844 2.082031 10.816406 2.082031 C 12.167969 2.082031 13.519531 2.597656 14.546875 3.625 C 14.792969 3.875 15.191406 3.875 15.433594 3.625 C 17.488281 1.570312 20.835938 1.570312 22.890625 3.625 C 23.886719 4.621094 24.433594 5.945312 24.433594 7.355469 C 24.433594 8.769531 23.886719 10.09375 22.890625 11.085938 L 15.589844 18.390625 C 15.265625 18.707031 14.710938 18.707031 14.390625 18.390625 Z M 14.390625 18.390625 "/><path style=" stroke:none;fill-rule:nonzero;fill:#ffffff;fill-opacity:1;" d="M 16.316406 6.328125 L 13.667969 6.328125 L 13.667969 8.316406 L 11.679688 8.316406 L 11.679688 10.964844 L 13.667969 10.964844 L 13.667969 12.953125 L 16.316406 12.953125 L 16.316406 10.964844 L 18.304688 10.964844 L 18.304688 8.316406 L 16.316406 8.316406 Z M 17.640625 8.976562 L 17.640625 10.296875 L 15.652344 10.296875 L 15.652344 12.285156 L 14.328125 12.285156 L 14.328125 10.296875 L 12.339844 10.296875 L 12.339844 8.976562 L 14.328125 8.976562 L 14.328125 6.988281 L 15.652344 6.988281 L 15.652344 8.976562 Z M 17.640625 8.976562 "/></g></svg>