<svg xmlns="http://www.w3.org/2000/svg" xmlns:xlink="http://www.w3.org/1999/xlink" width="40" zoomAndPan="magnify" viewBox="0 0 30 30.000001" height="40" preserveAspectRatio="xMidYMid meet" version="1.2"><defs><clipPath id="403cbee1af"><path d="M 0.484375 0 L 29 0 L 29 29.03125 L 0.484375 29.03125 Z M 0.484375 0 "/></clipPath></defs><g id="aa4ae46971"><g clip-rule="nonzero" clip-path="url(#403cbee1af)"><path style=" stroke:none;fill-rule:nonzero;fill:#ffffff;fill-opacity:1;" d="M 28.429688 1.144531 C 27.378906 0.09375 23.199219 2.144531 21.800781 3.546875 L 18.179688 7.164062 L 2.449219 4.390625 C 2.328125 4.367188 2.207031 4.40625 2.117188 4.492188 L 0.625 5.988281 C 0.539062 6.074219 0.5 6.195312 0.519531 6.3125 C 0.539062 6.433594 0.613281 6.535156 0.71875 6.589844 L 13.03125 12.746094 L 7.816406 19.414062 L 3.195312 18.601562 C 3.074219 18.582031 2.953125 18.617188 2.867188 18.703125 L 1.746094 19.824219 C 1.660156 19.90625 1.621094 20.027344 1.636719 20.144531 C 1.65625 20.261719 1.726562 20.363281 1.832031 20.417969 L 5.636719 22.464844 L 4.664062 24.410156 C 4.59375 24.550781 4.621094 24.726562 4.734375 24.839844 C 4.808594 24.910156 4.902344 24.949219 5 24.949219 C 5.058594 24.949219 5.113281 24.933594 5.167969 24.910156 L 7.109375 23.9375 L 9.160156 27.742188 C 9.214844 27.847656 9.316406 27.917969 9.433594 27.9375 C 9.453125 27.9375 9.46875 27.9375 9.488281 27.9375 C 9.585938 27.9375 9.679688 27.902344 9.753906 27.832031 L 10.875 26.707031 C 10.960938 26.621094 11 26.5 10.980469 26.382812 L 10.164062 21.757812 L 16.835938 16.542969 L 22.988281 28.855469 C 23.042969 28.960938 23.148438 29.035156 23.265625 29.054688 C 23.285156 29.058594 23.304688 29.0625 23.328125 29.0625 C 23.425781 29.0625 23.519531 29.023438 23.589844 28.953125 L 25.085938 27.457031 C 25.171875 27.371094 25.210938 27.246094 25.191406 27.125 L 22.414062 11.394531 L 26.035156 7.773438 C 27.4375 6.375 29.484375 2.199219 28.429688 1.144531 Z M 28.429688 1.144531 "/></g></g></svg>