<svg xmlns="http://www.w3.org/2000/svg" xmlns:xlink="http://www.w3.org/1999/xlink" width="145" zoomAndPan="magnify" viewBox="0 0 108.75 37.5" height="50" preserveAspectRatio="xMidYMid meet" version="1.0"><defs><g/><clipPath id="a80dba6f8e"><path d="M 4 0 L 41 0 L 41 37 L 4 37 Z M 4 0 " clip-rule="nonzero"/></clipPath><clipPath id="cf21fb1ae0"><path d="M 24.265625 -7.152344 L 47.878906 20.550781 L 20.171875 44.164062 L -3.441406 16.457031 Z M 24.265625 -7.152344 " clip-rule="nonzero"/></clipPath><clipPath id="dd3468d906"><path d="M 36.070312 6.699219 C 29.550781 -0.953125 18.0625 -1.867188 10.414062 4.652344 C 2.761719 11.171875 1.84375 22.660156 8.367188 30.3125 C 14.886719 37.960938 26.375 38.878906 34.023438 32.359375 C 41.675781 25.835938 42.59375 14.347656 36.070312 6.699219 Z M 36.070312 6.699219 " clip-rule="nonzero"/></clipPath><clipPath id="9300f5ca60"><path d="M 10 2 L 42 2 L 42 32 L 10 32 Z M 10 2 " clip-rule="nonzero"/></clipPath><clipPath id="a90e303470"><path d="M 33.234375 -7.136719 L 49.078125 11.453125 L 10.773438 44.097656 L -5.070312 25.511719 Z M 33.234375 -7.136719 " clip-rule="nonzero"/></clipPath><clipPath id="9faf149553"><path d="M 33.234375 -7.136719 L 49.078125 11.453125 L 10.773438 44.097656 L -5.070312 25.511719 Z M 33.234375 -7.136719 " clip-rule="nonzero"/></clipPath><clipPath id="b8dce1420b"><path d="M 20 2 L 42 2 L 42 32 L 20 32 Z M 20 2 " clip-rule="nonzero"/></clipPath><clipPath id="79ceea472c"><path d="M 33.234375 -7.136719 L 49.078125 11.453125 L 10.773438 44.097656 L -5.070312 25.511719 Z M 33.234375 -7.136719 " clip-rule="nonzero"/></clipPath><clipPath id="df47e55ab3"><path d="M 33.234375 -7.136719 L 49.078125 11.453125 L 10.773438 44.097656 L -5.070312 25.511719 Z M 33.234375 -7.136719 " clip-rule="nonzero"/></clipPath><clipPath id="b84d65fdd9"><path d="M 3 21 L 19 21 L 19 35 L 3 35 Z M 3 21 " clip-rule="nonzero"/></clipPath><clipPath id="a38b0d4ec1"><path d="M 33.234375 -7.136719 L 49.078125 11.453125 L 10.773438 44.097656 L -5.070312 25.511719 Z M 33.234375 -7.136719 " clip-rule="nonzero"/></clipPath><clipPath id="0ac1335398"><path d="M 33.234375 -7.136719 L 49.078125 11.453125 L 10.773438 44.097656 L -5.070312 25.511719 Z M 33.234375 -7.136719 " clip-rule="nonzero"/></clipPath><clipPath id="7fb2b177d0"><path d="M 102 20 L 107.910156 20 L 107.910156 27 L 102 27 Z M 102 20 " clip-rule="nonzero"/></clipPath></defs><g clip-path="url(#a80dba6f8e)"><g clip-path="url(#cf21fb1ae0)"><g clip-path="url(#dd3468d906)"><path fill="#ffbd59" d="M 24.265625 -7.152344 L 47.878906 20.550781 L 20.171875 44.164062 L -3.441406 16.457031 Z M 24.265625 -7.152344 " fill-opacity="1" fill-rule="nonzero"/></g></g></g><g clip-path="url(#9300f5ca60)"><g clip-path="url(#a90e303470)"><g clip-path="url(#9faf149553)"><path fill="#004aad" d="M 41.234375 2.296875 L 26.246094 31.316406 L 20.308594 20.128906 L 10.203125 12.492188 Z M 29.828125 12.015625 C 30.125 12.367188 30.347656 12.753906 30.5 13.1875 C 30.652344 13.617188 30.722656 14.0625 30.710938 14.519531 C 30.699219 14.976562 30.605469 15.414062 30.433594 15.835938 C 30.261719 16.261719 30.015625 16.636719 29.703125 16.972656 L 29.664062 17.003906 L 29.628906 17.035156 L 29.597656 17.0625 L 29.546875 17.105469 L 29.53125 17.117188 L 29.46875 17.171875 L 29.460938 17.175781 C 29.441406 17.195312 29.417969 17.214844 29.394531 17.234375 C 29.214844 17.417969 29.015625 17.582031 28.800781 17.726562 C 28.585938 17.867188 28.359375 17.988281 28.121094 18.082031 C 27.878906 18.179688 27.632812 18.25 27.378906 18.292969 C 27.125 18.339844 26.871094 18.355469 26.613281 18.347656 C 26.355469 18.339844 26.101562 18.304688 25.847656 18.242188 C 25.597656 18.179688 25.359375 18.09375 25.125 17.980469 C 24.894531 17.867188 24.675781 17.734375 24.46875 17.574219 C 24.265625 17.417969 24.082031 17.242188 23.914062 17.046875 C 23.746094 16.847656 23.601562 16.636719 23.476562 16.410156 C 23.351562 16.183594 23.253906 15.949219 23.179688 15.703125 C 23.105469 15.453125 23.058594 15.203125 23.035156 14.945312 C 23.015625 14.6875 23.019531 14.429688 23.050781 14.175781 C 23.082031 13.917969 23.140625 13.667969 23.226562 13.425781 C 23.308594 13.183594 23.417969 12.949219 23.546875 12.726562 C 23.679688 12.507812 23.835938 12.300781 24.007812 12.109375 C 24.183594 11.921875 24.378906 11.753906 24.585938 11.601562 C 24.609375 11.582031 24.632812 11.5625 24.65625 11.542969 L 24.664062 11.539062 L 24.726562 11.484375 L 24.742188 11.472656 L 24.792969 11.429688 L 24.824219 11.402344 L 24.894531 11.339844 C 25.273438 11.082031 25.6875 10.902344 26.132812 10.796875 C 26.578125 10.695312 27.027344 10.671875 27.480469 10.734375 C 27.929688 10.792969 28.359375 10.933594 28.761719 11.152344 C 29.160156 11.371094 29.511719 11.65625 29.808594 12.003906 Z M 29.828125 12.015625 " fill-opacity="1" fill-rule="nonzero"/></g></g></g><g clip-path="url(#b8dce1420b)"><g clip-path="url(#79ceea472c)"><g clip-path="url(#df47e55ab3)"><path fill="#012f6b" d="M 41.234375 2.296875 L 26.246094 31.316406 L 20.308594 20.128906 L 24.167969 16.839844 C 24.488281 17.214844 24.867188 17.511719 25.308594 17.738281 C 25.746094 17.960938 26.210938 18.09375 26.703125 18.132812 C 27.191406 18.171875 27.671875 18.113281 28.140625 17.964844 C 28.609375 17.8125 29.03125 17.578125 29.40625 17.257812 C 29.429688 17.238281 29.453125 17.21875 29.476562 17.199219 L 29.480469 17.191406 L 29.542969 17.140625 L 29.5625 17.125 L 29.609375 17.082031 L 29.640625 17.058594 L 29.679688 17.027344 L 29.714844 16.996094 C 30.027344 16.660156 30.273438 16.285156 30.445312 15.859375 C 30.621094 15.4375 30.710938 14.996094 30.722656 14.539062 C 30.734375 14.082031 30.664062 13.640625 30.511719 13.207031 C 30.359375 12.777344 30.136719 12.386719 29.839844 12.039062 L 41.25 2.316406 Z M 41.234375 2.296875 " fill-opacity="1" fill-rule="nonzero"/></g></g></g><g clip-path="url(#b84d65fdd9)"><g clip-path="url(#a38b0d4ec1)"><g clip-path="url(#0ac1335398)"><path fill="#004aad" d="M 3.210938 34.699219 L 15.65625 29.625 L 18.472656 21.691406 L 10.191406 23.21875 Z M 3.210938 34.699219 " fill-opacity="1" fill-rule="nonzero"/><path fill="#012f6b" d="M 3.210938 34.699219 L 15.65625 29.625 L 18.472656 21.691406 Z M 3.210938 34.699219 " fill-opacity="1" fill-rule="nonzero"/></g></g></g><g fill="#012f6b" fill-opacity="1"><g transform="translate(52.574088, 14.948522)"><g><path d="M 4.421875 -5.984375 L 4.421875 -4.8125 L 1.984375 -4.8125 L 1.984375 -3.5625 L 3.8125 -3.5625 L 3.8125 -2.421875 L 1.984375 -2.421875 L 1.984375 0 L 0.53125 0 L 0.53125 -5.984375 Z M 4.421875 -5.984375 "/></g></g></g><g fill="#012f6b" fill-opacity="1"><g transform="translate(57.240816, 14.948522)"><g><path d="M 1.984375 -1.125 L 3.90625 -1.125 L 3.90625 0 L 0.53125 0 L 0.53125 -5.984375 L 1.984375 -5.984375 Z M 1.984375 -1.125 "/></g></g></g><g fill="#012f6b" fill-opacity="1"><g transform="translate(61.310345, 14.948522)"><g><path d="M 1.984375 -4.8125 L 1.984375 -3.609375 L 3.9375 -3.609375 L 3.9375 -2.484375 L 1.984375 -2.484375 L 1.984375 -1.171875 L 4.203125 -1.171875 L 4.203125 0 L 0.53125 0 L 0.53125 -5.984375 L 4.203125 -5.984375 L 4.203125 -4.8125 Z M 1.984375 -4.8125 "/></g></g></g><g fill="#012f6b" fill-opacity="1"><g transform="translate(65.92589, 14.948522)"><g><path d="M 1.984375 -4.8125 L 1.984375 -3.609375 L 3.9375 -3.609375 L 3.9375 -2.484375 L 1.984375 -2.484375 L 1.984375 -1.171875 L 4.203125 -1.171875 L 4.203125 0 L 0.53125 0 L 0.53125 -5.984375 L 4.203125 -5.984375 L 4.203125 -4.8125 Z M 1.984375 -4.8125 "/></g></g></g><g fill="#012f6b" fill-opacity="1"><g transform="translate(70.541435, 14.948522)"><g><path d="M 4.84375 -5.984375 L 4.84375 -4.8125 L 3.25 -4.8125 L 3.25 0 L 1.796875 0 L 1.796875 -4.8125 L 0.203125 -4.8125 L 0.203125 -5.984375 Z M 4.84375 -5.984375 "/></g></g></g><g fill="#012f6b" fill-opacity="1"><g transform="translate(75.583557, 14.948522)"><g><path d="M 8.765625 -5.984375 L 7.203125 0 L 5.4375 0 L 4.484375 -3.9375 L 3.5 0 L 1.734375 0 L 0.21875 -5.984375 L 1.78125 -5.984375 L 2.640625 -1.625 L 3.703125 -5.984375 L 5.3125 -5.984375 L 6.328125 -1.625 L 7.203125 -5.984375 Z M 8.765625 -5.984375 "/></g></g></g><g fill="#012f6b" fill-opacity="1"><g transform="translate(84.558693, 14.948522)"><g><path d="M 3.359375 0.0625 C 2.796875 0.0625 2.28125 -0.0664062 1.8125 -0.328125 C 1.34375 -0.585938 0.96875 -0.953125 0.6875 -1.421875 C 0.414062 -1.898438 0.28125 -2.429688 0.28125 -3.015625 C 0.28125 -3.597656 0.414062 -4.125 0.6875 -4.59375 C 0.96875 -5.0625 1.34375 -5.425781 1.8125 -5.6875 C 2.28125 -5.945312 2.796875 -6.078125 3.359375 -6.078125 C 3.921875 -6.078125 4.4375 -5.945312 4.90625 -5.6875 C 5.375 -5.425781 5.742188 -5.0625 6.015625 -4.59375 C 6.285156 -4.125 6.421875 -3.597656 6.421875 -3.015625 C 6.421875 -2.429688 6.285156 -1.898438 6.015625 -1.421875 C 5.742188 -0.953125 5.375 -0.585938 4.90625 -0.328125 C 4.4375 -0.0664062 3.921875 0.0625 3.359375 0.0625 Z M 3.359375 -1.265625 C 3.835938 -1.265625 4.21875 -1.425781 4.5 -1.75 C 4.789062 -2.070312 4.9375 -2.492188 4.9375 -3.015625 C 4.9375 -3.546875 4.789062 -3.96875 4.5 -4.28125 C 4.21875 -4.59375 3.835938 -4.75 3.359375 -4.75 C 2.878906 -4.75 2.492188 -4.59375 2.203125 -4.28125 C 1.921875 -3.96875 1.78125 -3.546875 1.78125 -3.015625 C 1.78125 -2.484375 1.921875 -2.054688 2.203125 -1.734375 C 2.492188 -1.421875 2.878906 -1.265625 3.359375 -1.265625 Z M 3.359375 -1.265625 "/></g></g></g><g fill="#012f6b" fill-opacity="1"><g transform="translate(91.264454, 14.948522)"><g><path d="M 3.359375 0.0625 C 2.796875 0.0625 2.28125 -0.0664062 1.8125 -0.328125 C 1.34375 -0.585938 0.96875 -0.953125 0.6875 -1.421875 C 0.414062 -1.898438 0.28125 -2.429688 0.28125 -3.015625 C 0.28125 -3.597656 0.414062 -4.125 0.6875 -4.59375 C 0.96875 -5.0625 1.34375 -5.425781 1.8125 -5.6875 C 2.28125 -5.945312 2.796875 -6.078125 3.359375 -6.078125 C 3.921875 -6.078125 4.4375 -5.945312 4.90625 -5.6875 C 5.375 -5.425781 5.742188 -5.0625 6.015625 -4.59375 C 6.285156 -4.125 6.421875 -3.597656 6.421875 -3.015625 C 6.421875 -2.429688 6.285156 -1.898438 6.015625 -1.421875 C 5.742188 -0.953125 5.375 -0.585938 4.90625 -0.328125 C 4.4375 -0.0664062 3.921875 0.0625 3.359375 0.0625 Z M 3.359375 -1.265625 C 3.835938 -1.265625 4.21875 -1.425781 4.5 -1.75 C 4.789062 -2.070312 4.9375 -2.492188 4.9375 -3.015625 C 4.9375 -3.546875 4.789062 -3.96875 4.5 -4.28125 C 4.21875 -4.59375 3.835938 -4.75 3.359375 -4.75 C 2.878906 -4.75 2.492188 -4.59375 2.203125 -4.28125 C 1.921875 -3.96875 1.78125 -3.546875 1.78125 -3.015625 C 1.78125 -2.484375 1.921875 -2.054688 2.203125 -1.734375 C 2.492188 -1.421875 2.878906 -1.265625 3.359375 -1.265625 Z M 3.359375 -1.265625 "/></g></g></g><g fill="#012f6b" fill-opacity="1"><g transform="translate(97.970214, 14.948522)"><g><path d="M 2.765625 -5.984375 C 3.398438 -5.984375 3.953125 -5.859375 4.421875 -5.609375 C 4.898438 -5.359375 5.265625 -5.003906 5.515625 -4.546875 C 5.773438 -4.097656 5.90625 -3.582031 5.90625 -3 C 5.90625 -2.40625 5.773438 -1.878906 5.515625 -1.421875 C 5.265625 -0.972656 4.898438 -0.625 4.421875 -0.375 C 3.953125 -0.125 3.398438 0 2.765625 0 L 0.53125 0 L 0.53125 -5.984375 Z M 2.671875 -1.265625 C 3.222656 -1.265625 3.648438 -1.414062 3.953125 -1.71875 C 4.265625 -2.019531 4.421875 -2.445312 4.421875 -3 C 4.421875 -3.550781 4.265625 -3.976562 3.953125 -4.28125 C 3.648438 -4.59375 3.222656 -4.75 2.671875 -4.75 L 1.984375 -4.75 L 1.984375 -1.265625 Z M 2.671875 -1.265625 "/></g></g></g><g fill="#012f6b" fill-opacity="1"><g transform="translate(48.508324, 26.323777)"><g><path d="M 1.984375 -5.984375 L 1.984375 0 L 0.53125 0 L 0.53125 -5.984375 Z M 1.984375 -5.984375 "/></g></g></g><g fill="#012f6b" fill-opacity="1"><g transform="translate(51.025115, 26.323777)"><g><path d="M 7.3125 -5.984375 L 7.3125 0 L 5.859375 0 L 5.859375 -3.59375 L 4.515625 0 L 3.328125 0 L 1.984375 -3.59375 L 1.984375 0 L 0.53125 0 L 0.53125 -5.984375 L 2.25 -5.984375 L 3.9375 -1.84375 L 5.59375 -5.984375 Z M 7.3125 -5.984375 "/></g></g></g><g fill="#012f6b" fill-opacity="1"><g transform="translate(58.857037, 26.323777)"><g><path d="M 7.3125 -5.984375 L 7.3125 0 L 5.859375 0 L 5.859375 -3.59375 L 4.515625 0 L 3.328125 0 L 1.984375 -3.59375 L 1.984375 0 L 0.53125 0 L 0.53125 -5.984375 L 2.25 -5.984375 L 3.9375 -1.84375 L 5.59375 -5.984375 Z M 7.3125 -5.984375 "/></g></g></g><g fill="#012f6b" fill-opacity="1"><g transform="translate(66.688959, 26.323777)"><g><path d="M 1.984375 -5.984375 L 1.984375 0 L 0.53125 0 L 0.53125 -5.984375 Z M 1.984375 -5.984375 "/></g></g></g><g fill="#012f6b" fill-opacity="1"><g transform="translate(69.205751, 26.323777)"><g><path d="M 4.5 -4.09375 C 4.394531 -4.289062 4.238281 -4.441406 4.03125 -4.546875 C 3.832031 -4.648438 3.597656 -4.703125 3.328125 -4.703125 C 2.859375 -4.703125 2.476562 -4.546875 2.1875 -4.234375 C 1.90625 -3.929688 1.765625 -3.519531 1.765625 -3 C 1.765625 -2.445312 1.910156 -2.015625 2.203125 -1.703125 C 2.503906 -1.398438 2.921875 -1.25 3.453125 -1.25 C 3.804688 -1.25 4.101562 -1.335938 4.34375 -1.515625 C 4.59375 -1.703125 4.773438 -1.960938 4.890625 -2.296875 L 3.046875 -2.296875 L 3.046875 -3.375 L 6.21875 -3.375 L 6.21875 -2.015625 C 6.113281 -1.648438 5.929688 -1.3125 5.671875 -1 C 5.410156 -0.6875 5.082031 -0.429688 4.6875 -0.234375 C 4.289062 -0.046875 3.835938 0.046875 3.328125 0.046875 C 2.742188 0.046875 2.21875 -0.0820312 1.75 -0.34375 C 1.289062 -0.601562 0.929688 -0.960938 0.671875 -1.421875 C 0.410156 -1.878906 0.28125 -2.40625 0.28125 -3 C 0.28125 -3.59375 0.410156 -4.117188 0.671875 -4.578125 C 0.929688 -5.046875 1.289062 -5.410156 1.75 -5.671875 C 2.207031 -5.929688 2.734375 -6.0625 3.328125 -6.0625 C 4.046875 -6.0625 4.648438 -5.882812 5.140625 -5.53125 C 5.628906 -5.1875 5.953125 -4.707031 6.109375 -4.09375 Z M 4.5 -4.09375 "/></g></g></g><g fill="#012f6b" fill-opacity="1"><g transform="translate(75.70675, 26.323777)"><g><path d="M 3.578125 0 L 2.34375 -2.265625 L 1.984375 -2.265625 L 1.984375 0 L 0.53125 0 L 0.53125 -5.984375 L 2.984375 -5.984375 C 3.453125 -5.984375 3.851562 -5.898438 4.1875 -5.734375 C 4.519531 -5.578125 4.765625 -5.351562 4.921875 -5.0625 C 5.085938 -4.769531 5.171875 -4.453125 5.171875 -4.109375 C 5.171875 -3.703125 5.054688 -3.34375 4.828125 -3.03125 C 4.609375 -2.71875 4.28125 -2.5 3.84375 -2.375 L 5.234375 0 Z M 1.984375 -3.296875 L 2.890625 -3.296875 C 3.160156 -3.296875 3.359375 -3.359375 3.484375 -3.484375 C 3.617188 -3.617188 3.6875 -3.804688 3.6875 -4.046875 C 3.6875 -4.273438 3.617188 -4.453125 3.484375 -4.578125 C 3.359375 -4.710938 3.160156 -4.78125 2.890625 -4.78125 L 1.984375 -4.78125 Z M 1.984375 -3.296875 "/></g></g></g><g fill="#012f6b" fill-opacity="1"><g transform="translate(81.269286, 26.323777)"><g><path d="M 4.25 -1.0625 L 2.015625 -1.0625 L 1.65625 0 L 0.140625 0 L 2.296875 -5.984375 L 4 -5.984375 L 6.15625 0 L 4.609375 0 Z M 3.875 -2.1875 L 3.140625 -4.375 L 2.40625 -2.1875 Z M 3.875 -2.1875 "/></g></g></g><g fill="#012f6b" fill-opacity="1"><g transform="translate(87.556997, 26.323777)"><g><path d="M 4.84375 -5.984375 L 4.84375 -4.8125 L 3.25 -4.8125 L 3.25 0 L 1.796875 0 L 1.796875 -4.8125 L 0.203125 -4.8125 L 0.203125 -5.984375 Z M 4.84375 -5.984375 "/></g></g></g><g fill="#012f6b" fill-opacity="1"><g transform="translate(92.599118, 26.323777)"><g><path d="M 1.984375 -5.984375 L 1.984375 0 L 0.53125 0 L 0.53125 -5.984375 Z M 1.984375 -5.984375 "/></g></g></g><g fill="#012f6b" fill-opacity="1"><g transform="translate(95.11591, 26.323777)"><g><path d="M 3.359375 0.0625 C 2.796875 0.0625 2.28125 -0.0664062 1.8125 -0.328125 C 1.34375 -0.585938 0.96875 -0.953125 0.6875 -1.421875 C 0.414062 -1.898438 0.28125 -2.429688 0.28125 -3.015625 C 0.28125 -3.597656 0.414062 -4.125 0.6875 -4.59375 C 0.96875 -5.0625 1.34375 -5.425781 1.8125 -5.6875 C 2.28125 -5.945312 2.796875 -6.078125 3.359375 -6.078125 C 3.921875 -6.078125 4.4375 -5.945312 4.90625 -5.6875 C 5.375 -5.425781 5.742188 -5.0625 6.015625 -4.59375 C 6.285156 -4.125 6.421875 -3.597656 6.421875 -3.015625 C 6.421875 -2.429688 6.285156 -1.898438 6.015625 -1.421875 C 5.742188 -0.953125 5.375 -0.585938 4.90625 -0.328125 C 4.4375 -0.0664062 3.921875 0.0625 3.359375 0.0625 Z M 3.359375 -1.265625 C 3.835938 -1.265625 4.21875 -1.425781 4.5 -1.75 C 4.789062 -2.070312 4.9375 -2.492188 4.9375 -3.015625 C 4.9375 -3.546875 4.789062 -3.96875 4.5 -4.28125 C 4.21875 -4.59375 3.835938 -4.75 3.359375 -4.75 C 2.878906 -4.75 2.492188 -4.59375 2.203125 -4.28125 C 1.921875 -3.96875 1.78125 -3.546875 1.78125 -3.015625 C 1.78125 -2.484375 1.921875 -2.054688 2.203125 -1.734375 C 2.492188 -1.421875 2.878906 -1.265625 3.359375 -1.265625 Z M 3.359375 -1.265625 "/></g></g></g><g clip-path="url(#7fb2b177d0)"><g fill="#012f6b" fill-opacity="1"><g transform="translate(101.821671, 26.323777)"><g><path d="M 5.890625 0 L 4.421875 0 L 1.984375 -3.6875 L 1.984375 0 L 0.53125 0 L 0.53125 -5.984375 L 1.984375 -5.984375 L 4.421875 -2.28125 L 4.421875 -5.984375 L 5.890625 -5.984375 Z M 5.890625 0 "/></g></g></g></g></svg>